{
  "source": "C:\\Users\\Peter\\Desktop\\stuff\\MIUN\\quantitative_research\\video_compression\\videos\\BVI-HD\\BVI-HD_CDVL_videos\\ORIG\\Diver_1920x1080_30fps.mp4",
  "output": "C:\\Users\\Peter\\Desktop\\stuff\\MIUN\\quantitative_research\\video_compression\\compressed_videos\\BVI-HD\\hevc\\2.5\\Diver_1920x1080_30fps_hevc.mp4",
  "codec": "hevc",
  "ok": "Input #0, mov,mp4,m4a,3gp,3g2,mj2, from 'C:\\Users\\Peter\\Desktop\\stuff\\MIUN\\quantitative_research\\video_compression\\videos\\BVI-HD\\BVI-HD_CDVL_videos\\ORIG\\Diver_1920x1080_30fps.mp4':\n  Metadata:\n    major_brand     : isom\n    minor_version   : 512\n    compatible_brands: isomiso2avc1mp41\n    encoder         : Lavf54.28.101\n  Duration: 00:00:05.00, start: 0.000000, bitrate: 196798 kb/s\n  Stream #0:0[0x1](und): Video: h264 (High 4:4:4 Predictive) (avc1 / 0x31637661), yuv420p(progressive), 1920x1080, 196794 kb/s, 30 fps, 30 tbr, 30 tbn (default)\n    Metadata:\n      handler_name    : VideoHandler\n      vendor_id       : [0][0][0][0]\n[out#0/mp4 @ 00000173646ead00] Codec AVOption b:a (set bitrate (in bits/s)) has not been used for any stream. The most likely reason is either wrong type (e.g. a video option with no video streams) or that it is a private option of some decoder which was not actually used for any stream.\nStream mapping:\n  Stream #0:0 -> #0:0 (h264 (native) -> hevc (libx265))\nPress [q] to stop, [?] for help\n[libx265 @ 00000173646efd80] Unknown option: \"aq-mode.\nx265 [info]: HEVC encoder version 4.1+190-8f11c33ac\nx265 [info]: build info [Windows][GCC 15.1.0][64 bit] 10bit\nx265 [info]: using cpu capabilities: MMX2 SSE2Fast LZCNT SSSE3 SSE4.2 AVX FMA3 BMI2 AVX2\nx265 [info]: Main 10 profile, Level-4 (Main tier)\nx265 [info]: Thread pool created using 12 threads\nx265 [info]: Slices                              : 1\nx265 [info]: frame threads / pool features       : 3 / wpp(17 rows)\nx265 [info]: Coding QT: max CU size, min CU size : 64 / 8\nx265 [info]: Residual QT: max TU size, max depth : 32 / 1 inter / 1 intra\nx265 [info]: ME / range / subpel / merge         : star / 57 / 3 / 3\nx265 [info]: Keyframe min / max / scenecut / bias  : 25 / 250 / 40 / 5.00 \nx265 [info]: Lookahead / bframes / badapt        : 25 / 4 / 2\nx265 [info]: b-pyramid / weightp / weightb       : 1 / 1 / 0\nx265 [info]: References / ref-limit  cu / depth  : 4 / on / on\nx265 [info]: AQ: mode / str / qg-size / cu-tree  : 2 / 1.0 / 32 / 1\nx265 [info]: Rate Control / qCompress            : ABR-2500 kbps / 0.60\nx265 [info]: VBV/HRD buffer / max-rate / init    : 2500 / 2500 / 0.750\nx265 [info]: tools: rect limit-modes rd=4 psy-rd=2.00 rdoq=2 psy-rdoq=1.00\nx265 [info]: tools: rskip mode=1 signhide tmvp strong-intra-smoothing lslices=4\nx265 [info]: tools: deblock sao dhdr10-info\nOutput #0, mp4, to 'C:\\Users\\Peter\\Desktop\\stuff\\MIUN\\quantitative_research\\video_compression\\compressed_videos\\BVI-HD\\hevc\\2.5\\Diver_1920x1080_30fps_hevc.mp4':\n  Metadata:\n    major_brand     : isom\n    minor_version   : 512\n    compatible_brands: isomiso2avc1mp41\n    encoder         : Lavf62.3.100\n  Stream #0:0(und): Video: hevc (hev1 / 0x31766568), yuv420p10le(tv, progressive), 1920x1080, q=2-31, 2500 kb/s, 30 fps, 15360 tbn (default)\n    Metadata:\n      encoder         : Lavc62.11.100 libx265\n      handler_name    : VideoHandler\n      vendor_id       : [0][0][0][0]\n    Side data:\n      cpb: bitrate max/min/avg: 2500000/0/2500000 buffer size: 2500000 vbv_delay: N/A\nframe=    0 fps=0.0 q=0.0 size=       0KiB time=N/A bitrate=N/A speed=N/A elapsed=0:00:01.03    \nframe=    0 fps=0.0 q=0.0 size=       0KiB time=N/A bitrate=N/A speed=N/A elapsed=0:00:01.55    \nframe=    0 fps=0.0 q=0.0 size=       0KiB time=N/A bitrate=N/A speed=N/A elapsed=0:00:02.09    \nframe=    0 fps=0.0 q=0.0 size=       0KiB time=N/A bitrate=N/A speed=N/A elapsed=0:00:02.59    \nframe=    0 fps=0.0 q=0.0 size=       0KiB time=N/A bitrate=N/A speed=N/A elapsed=0:00:03.11    \nframe=    0 fps=0.0 q=0.0 size=       0KiB time=N/A bitrate=N/A speed=N/A elapsed=0:00:03.66    \nframe=    0 fps=0.0 q=0.0 size=       0KiB time=N/A bitrate=N/A speed=N/A elapsed=0:00:04.19    \nframe=    0 fps=0.0 q=0.0 size=       0KiB time=N/A bitrate=N/A speed=N/A elapsed=0:00:04.73    \nframe=    0 fps=0.0 q=0.0 size=       0KiB time=N/A bitrate=N/A speed=N/A elapsed=0:00:05.25    \nframe=    0 fps=0.0 q=0.0 size=       0KiB time=N/A bitrate=N/A speed=N/A elapsed=0:00:05.77    \nframe=    0 fps=0.0 q=0.0 size=       0KiB time=N/A bitrate=N/A speed=N/A elapsed=0:00:06.28    \nframe=    0 fps=0.0 q=0.0 size=       0KiB time=N/A bitrate=N/A speed=N/A elapsed=0:00:06.80    \nframe=    1 fps=0.1 q=29.1 size=       0KiB time=-00:00:00.03 bitrate=N/A speed=N/A elapsed=0:00:07.31    \nframe=    1 fps=0.1 q=29.1 size=       0KiB time=-00:00:00.03 bitrate=N/A speed=N/A elapsed=0:00:07.85    \nframe=    1 fps=0.1 q=29.1 size=       0KiB time=-00:00:00.03 bitrate=N/A speed=N/A elapsed=0:00:08.39    \nframe=    2 fps=0.2 q=31.1 size=       0KiB time=00:00:00.00 bitrate=N/A speed=   0x elapsed=0:00:08.90    \nframe=    3 fps=0.3 q=34.2 size=       0KiB time=00:00:00.03 bitrate=  10.6kbits/s speed=0.00353x elapsed=0:00:09.43    \nframe=    4 fps=0.4 q=34.8 size=       0KiB time=00:00:00.06 bitrate=   5.3kbits/s speed=0.0067x elapsed=0:00:09.95    \nframe=    4 fps=0.4 q=34.8 size=       0KiB time=00:00:00.06 bitrate=   5.3kbits/s speed=0.00637x elapsed=0:00:10.47    \nframe=    4 fps=0.4 q=34.8 size=       0KiB time=00:00:00.06 bitrate=   5.3kbits/s speed=0.00606x elapsed=0:00:10.99    \nframe=    4 fps=0.3 q=34.8 size=       0KiB time=00:00:00.06 bitrate=   5.3kbits/s speed=0.0058x elapsed=0:00:11.50    \nframe=    4 fps=0.3 q=34.8 size=       0KiB time=00:00:00.06 bitrate=   5.3kbits/s speed=0.00554x elapsed=0:00:12.02    \nframe=    5 fps=0.4 q=33.0 size=       0KiB time=00:00:00.10 bitrate=   3.5kbits/s speed=0.00798x elapsed=0:00:12.52    \nframe=    5 fps=0.4 q=33.0 size=       0KiB time=00:00:00.10 bitrate=   3.5kbits/s speed=0.00766x elapsed=0:00:13.05    \nframe=    6 fps=0.4 q=31.8 size=       0KiB time=00:00:00.13 bitrate=   2.6kbits/s speed=0.00982x elapsed=0:00:13.57    \nframe=    6 fps=0.4 q=31.8 size=       0KiB time=00:00:00.13 bitrate=   2.6kbits/s speed=0.00947x elapsed=0:00:14.08    \nframe=    6 fps=0.4 q=31.8 size=       0KiB time=00:00:00.13 bitrate=   2.6kbits/s speed=0.00913x elapsed=0:00:14.59    \nframe=    7 fps=0.5 q=24.5 size=       0KiB time=00:00:00.16 bitrate=   2.1kbits/s speed=0.011x elapsed=0:00:15.12    \nframe=    8 fps=0.5 q=25.5 size=       0KiB time=00:00:00.20 bitrate=   1.8kbits/s speed=0.0128x elapsed=0:00:15.64    \nframe=    8 fps=0.5 q=25.5 size=       0KiB time=00:00:00.20 bitrate=   1.8kbits/s speed=0.0124x elapsed=0:00:16.17    \nframe=    8 fps=0.5 q=25.5 size=       0KiB time=00:00:00.20 bitrate=   1.8kbits/s speed=0.012x elapsed=0:00:16.69    \nframe=    9 fps=0.5 q=26.9 size=       0KiB time=00:00:00.23 bitrate=   1.5kbits/s speed=0.0136x elapsed=0:00:17.21    \nframe=    9 fps=0.5 q=26.9 size=       0KiB time=00:00:00.23 bitrate=   1.5kbits/s speed=0.0131x elapsed=0:00:17.75    \nframe=    9 fps=0.5 q=26.9 size=       0KiB time=00:00:00.23 bitrate=   1.5kbits/s speed=0.0128x elapsed=0:00:18.28    \nframe=   10 fps=0.5 q=26.5 size=       0KiB time=00:00:00.26 bitrate=   1.3kbits/s speed=0.0142x elapsed=0:00:18.80    \nframe=   10 fps=0.5 q=26.5 size=       0KiB time=00:00:00.26 bitrate=   1.3kbits/s speed=0.0138x elapsed=0:00:19.32    \nframe=   10 fps=0.5 q=26.5 size=       0KiB time=00:00:00.26 bitrate=   1.3kbits/s speed=0.0134x elapsed=0:00:19.86    \nframe=   11 fps=0.5 q=25.5 size=       0KiB time=00:00:00.30 bitrate=   1.2kbits/s speed=0.0147x elapsed=0:00:20.40    \nframe=   11 fps=0.5 q=25.5 size=       0KiB time=00:00:00.30 bitrate=   1.2kbits/s speed=0.0143x elapsed=0:00:20.94    \nframe=   12 fps=0.6 q=23.4 size=       0KiB time=00:00:00.33 bitrate=   1.1kbits/s speed=0.0155x elapsed=0:00:21.48    \nframe=   12 fps=0.5 q=23.4 size=       0KiB time=00:00:00.33 bitrate=   1.1kbits/s speed=0.0151x elapsed=0:00:22.02    \nframe=   12 fps=0.5 q=23.4 size=       0KiB time=00:00:00.33 bitrate=   1.1kbits/s speed=0.0148x elapsed=0:00:22.53    \nframe=   12 fps=0.5 q=23.4 size=       0KiB time=00:00:00.33 bitrate=   1.1kbits/s speed=0.0145x elapsed=0:00:23.05    \nframe=   12 fps=0.5 q=23.4 size=       0KiB time=00:00:00.33 bitrate=   1.1kbits/s speed=0.0141x elapsed=0:00:23.59    \nframe=   13 fps=0.5 q=25.3 size=       0KiB time=00:00:00.36 bitrate=   1.0kbits/s speed=0.0152x elapsed=0:00:24.11    \nframe=   13 fps=0.5 q=25.3 size=       0KiB time=00:00:00.36 bitrate=   1.0kbits/s speed=0.0149x elapsed=0:00:24.65    \nframe=   14 fps=0.6 q=25.6 size=       0KiB time=00:00:00.40 bitrate=   0.9kbits/s speed=0.0159x elapsed=0:00:25.16    \nframe=   14 fps=0.5 q=25.6 size=       0KiB time=00:00:00.40 bitrate=   0.9kbits/s speed=0.0156x elapsed=0:00:25.69    \nframe=   14 fps=0.5 q=25.6 size=       0KiB time=00:00:00.40 bitrate=   0.9kbits/s speed=0.0153x elapsed=0:00:26.21    \nframe=   14 fps=0.5 q=25.6 size=       0KiB time=00:00:00.40 bitrate=   0.9kbits/s speed=0.015x elapsed=0:00:26.72    \nframe=   14 fps=0.5 q=25.6 size=       0KiB time=00:00:00.40 bitrate=   0.9kbits/s speed=0.0147x elapsed=0:00:27.24    \nframe=   15 fps=0.5 q=25.6 size=       0KiB time=00:00:00.43 bitrate=   0.8kbits/s speed=0.0156x elapsed=0:00:27.76    \nframe=   15 fps=0.5 q=25.6 size=       0KiB time=00:00:00.43 bitrate=   0.8kbits/s speed=0.0153x elapsed=0:00:28.29    \nframe=   15 fps=0.5 q=25.6 size=       0KiB time=00:00:00.43 bitrate=   0.8kbits/s speed=0.015x elapsed=0:00:28.82    \nframe=   15 fps=0.5 q=25.6 size=       0KiB time=00:00:00.43 bitrate=   0.8kbits/s speed=0.0148x elapsed=0:00:29.32    \nframe=   15 fps=0.5 q=25.6 size=       0KiB time=00:00:00.43 bitrate=   0.8kbits/s speed=0.0145x elapsed=0:00:29.84    \nframe=   16 fps=0.5 q=25.4 size=       0KiB time=00:00:00.46 bitrate=   0.8kbits/s speed=0.0154x elapsed=0:00:30.36    \nframe=   16 fps=0.5 q=25.4 size=       0KiB time=00:00:00.46 bitrate=   0.8kbits/s speed=0.0151x elapsed=0:00:30.87    \nframe=   17 fps=0.5 q=22.9 size=       0KiB time=00:00:00.50 bitrate=   0.7kbits/s speed=0.0159x elapsed=0:00:31.38    \nframe=   17 fps=0.5 q=22.9 size=       0KiB time=00:00:00.50 bitrate=   0.7kbits/s speed=0.0157x elapsed=0:00:31.90    \nframe=   17 fps=0.5 q=22.9 size=       0KiB time=00:00:00.50 bitrate=   0.7kbits/s speed=0.0154x elapsed=0:00:32.43    \nframe=   17 fps=0.5 q=22.9 size=       0KiB time=00:00:00.50 bitrate=   0.7kbits/s speed=0.0152x elapsed=0:00:32.98    \nframe=   18 fps=0.5 q=24.4 size=       0KiB time=00:00:00.53 bitrate=   0.7kbits/s speed=0.0159x elapsed=0:00:33.50    \nframe=   18 fps=0.5 q=24.4 size=       0KiB time=00:00:00.53 bitrate=   0.7kbits/s speed=0.0157x elapsed=0:00:34.02    \nframe=   18 fps=0.5 q=24.4 size=       0KiB time=00:00:00.53 bitrate=   0.7kbits/s speed=0.0154x elapsed=0:00:34.53    \nframe=   19 fps=0.5 q=25.8 size=       0KiB time=00:00:00.56 bitrate=   0.6kbits/s speed=0.0162x elapsed=0:00:35.05    \nframe=   19 fps=0.5 q=25.8 size=       0KiB time=00:00:00.56 bitrate=   0.6kbits/s speed=0.0159x elapsed=0:00:35.57    \nframe=   19 fps=0.5 q=25.8 size=       0KiB time=00:00:00.56 bitrate=   0.6kbits/s speed=0.0157x elapsed=0:00:36.09    \nframe=   19 fps=0.5 q=25.8 size=       0KiB time=00:00:00.56 bitrate=   0.6kbits/s speed=0.0155x elapsed=0:00:36.61    \nframe=   19 fps=0.5 q=25.8 size=       0KiB time=00:00:00.56 bitrate=   0.6kbits/s speed=0.0153x elapsed=0:00:37.13    \nframe=   20 fps=0.5 q=25.8 size=       0KiB time=00:00:00.60 bitrate=   0.6kbits/s speed=0.0159x elapsed=0:00:37.64    \nframe=   20 fps=0.5 q=25.8 size=       0KiB time=00:00:00.60 bitrate=   0.6kbits/s speed=0.0157x elapsed=0:00:38.17    \nframe=   20 fps=0.5 q=25.8 size=       0KiB time=00:00:00.60 bitrate=   0.6kbits/s speed=0.0155x elapsed=0:00:38.69    \nframe=   20 fps=0.5 q=25.8 size=       0KiB time=00:00:00.60 bitrate=   0.6kbits/s speed=0.0153x elapsed=0:00:39.22    \nframe=   21 fps=0.5 q=25.4 size=       0KiB time=00:00:00.63 bitrate=   0.6kbits/s speed=0.0159x elapsed=0:00:39.74    \nframe=   21 fps=0.5 q=25.4 size=       0KiB time=00:00:00.63 bitrate=   0.6kbits/s speed=0.0157x elapsed=0:00:40.26    \nframe=   21 fps=0.5 q=25.4 size=       0KiB time=00:00:00.63 bitrate=   0.6kbits/s speed=0.0155x elapsed=0:00:40.78    \nframe=   22 fps=0.5 q=23.0 size=       0KiB time=00:00:00.66 bitrate=   0.5kbits/s speed=0.0161x elapsed=0:00:41.29    \nframe=   22 fps=0.5 q=23.0 size=       0KiB time=00:00:00.66 bitrate=   0.5kbits/s speed=0.0159x elapsed=0:00:41.81    \nframe=   22 fps=0.5 q=23.0 size=       0KiB time=00:00:00.66 bitrate=   0.5kbits/s speed=0.0157x elapsed=0:00:42.33    \nframe=   22 fps=0.5 q=23.0 size=       0KiB time=00:00:00.66 bitrate=   0.5kbits/s speed=0.0156x elapsed=0:00:42.86    \nframe=   22 fps=0.5 q=23.0 size=       0KiB time=00:00:00.66 bitrate=   0.5kbits/s speed=0.0154x elapsed=0:00:43.40    \nframe=   23 fps=0.5 q=24.6 size=       0KiB time=00:00:00.70 bitrate=   0.5kbits/s speed=0.0159x elapsed=0:00:43.92    \nframe=   23 fps=0.5 q=24.6 size=       0KiB time=00:00:00.70 bitrate=   0.5kbits/s speed=0.0157x elapsed=0:00:44.44    \nframe=   23 fps=0.5 q=24.6 size=       0KiB time=00:00:00.70 bitrate=   0.5kbits/s speed=0.0156x elapsed=0:00:44.99    \nframe=   23 fps=0.5 q=24.6 size=       0KiB time=00:00:00.70 bitrate=   0.5kbits/s speed=0.0154x elapsed=0:00:45.51    \nframe=   24 fps=0.5 q=25.7 size=       0KiB time=00:00:00.73 bitrate=   0.5kbits/s speed=0.0159x elapsed=0:00:46.06    \nframe=   24 fps=0.5 q=25.7 size=       0KiB time=00:00:00.73 bitrate=   0.5kbits/s speed=0.0157x elapsed=0:00:46.58    \nframe=   24 fps=0.5 q=25.7 size=       0KiB time=00:00:00.73 bitrate=   0.5kbits/s speed=0.0156x elapsed=0:00:47.09    \nframe=   24 fps=0.5 q=25.7 size=       0KiB time=00:00:00.73 bitrate=   0.5kbits/s speed=0.0154x elapsed=0:00:47.62    \nframe=   24 fps=0.5 q=25.7 size=       0KiB time=00:00:00.73 bitrate=   0.5kbits/s speed=0.0152x elapsed=0:00:48.15    \nframe=   25 fps=0.5 q=25.7 size=       0KiB time=00:00:00.76 bitrate=   0.5kbits/s speed=0.0157x elapsed=0:00:48.67    \nframe=   25 fps=0.5 q=25.7 size=       0KiB time=00:00:00.76 bitrate=   0.5kbits/s speed=0.0156x elapsed=0:00:49.18    \nframe=   25 fps=0.5 q=25.7 size=       0KiB time=00:00:00.76 bitrate=   0.5kbits/s speed=0.0154x elapsed=0:00:49.71    \nframe=   25 fps=0.5 q=25.7 size=       0KiB time=00:00:00.76 bitrate=   0.5kbits/s speed=0.0153x elapsed=0:00:50.26    \nframe=   26 fps=0.5 q=25.5 size=       0KiB time=00:00:00.80 bitrate=   0.4kbits/s speed=0.0158x elapsed=0:00:50.78    \nframe=   26 fps=0.5 q=25.5 size=       0KiB time=00:00:00.80 bitrate=   0.4kbits/s speed=0.0156x elapsed=0:00:51.29    \nframe=   26 fps=0.5 q=25.5 size=       0KiB time=00:00:00.80 bitrate=   0.4kbits/s speed=0.0154x elapsed=0:00:51.83    \nframe=   26 fps=0.5 q=25.5 size=       0KiB time=00:00:00.80 bitrate=   0.4kbits/s speed=0.0153x elapsed=0:00:52.38    \nframe=   26 fps=0.5 q=25.5 size=       0KiB time=00:00:00.80 bitrate=   0.4kbits/s speed=0.0151x elapsed=0:00:52.92    \nframe=   26 fps=0.5 q=25.5 size=       0KiB time=00:00:00.80 bitrate=   0.4kbits/s speed=0.015x elapsed=0:00:53.49    \nframe=   26 fps=0.5 q=25.5 size=       0KiB time=00:00:00.80 bitrate=   0.4kbits/s speed=0.0148x elapsed=0:00:54.05    \nframe=   26 fps=0.5 q=25.5 size=       0KiB time=00:00:00.80 bitrate=   0.4kbits/s speed=0.0146x elapsed=0:00:54.65    \nframe=   26 fps=0.5 q=25.5 size=       0KiB time=00:00:00.80 bitrate=   0.4kbits/s speed=0.0145x elapsed=0:00:55.24    \nframe=   27 fps=0.5 q=23.3 size=       0KiB time=00:00:00.83 bitrate=   0.4kbits/s speed=0.0149x elapsed=0:00:55.79    \nframe=   27 fps=0.5 q=23.3 size=       0KiB time=00:00:00.83 bitrate=   0.4kbits/s speed=0.0148x elapsed=0:00:56.31    \nframe=   27 fps=0.5 q=23.3 size=       0KiB time=00:00:00.83 bitrate=   0.4kbits/s speed=0.0147x elapsed=0:00:56.82    \nframe=   27 fps=0.5 q=23.3 size=       0KiB time=00:00:00.83 bitrate=   0.4kbits/s speed=0.0145x elapsed=0:00:57.34    \nframe=   27 fps=0.5 q=23.3 size=       0KiB time=00:00:00.83 bitrate=   0.4kbits/s speed=0.0144x elapsed=0:00:57.86    \nframe=   27 fps=0.5 q=23.3 size=       0KiB time=00:00:00.83 bitrate=   0.4kbits/s speed=0.0143x elapsed=0:00:58.39    \nframe=   27 fps=0.5 q=23.3 size=       0KiB time=00:00:00.83 bitrate=   0.4kbits/s speed=0.0141x elapsed=0:00:58.92    \nframe=   27 fps=0.5 q=23.3 size=       0KiB time=00:00:00.83 bitrate=   0.4kbits/s speed=0.014x elapsed=0:00:59.44    \nframe=   28 fps=0.5 q=25.0 size=       0KiB time=00:00:00.86 bitrate=   0.4kbits/s speed=0.0145x elapsed=0:00:59.96    \nframe=   28 fps=0.5 q=25.0 size=       0KiB time=00:00:00.86 bitrate=   0.4kbits/s speed=0.0143x elapsed=0:01:00.47    \nframe=   29 fps=0.5 q=26.3 size=       0KiB time=00:00:00.90 bitrate=   0.4kbits/s speed=0.0148x elapsed=0:01:00.98    \nframe=   29 fps=0.5 q=26.3 size=       0KiB time=00:00:00.90 bitrate=   0.4kbits/s speed=0.0146x elapsed=0:01:01.51    \nframe=   29 fps=0.5 q=26.3 size=       0KiB time=00:00:00.90 bitrate=   0.4kbits/s speed=0.0145x elapsed=0:01:02.02    \nframe=   29 fps=0.5 q=26.3 size=       0KiB time=00:00:00.90 bitrate=   0.4kbits/s speed=0.0144x elapsed=0:01:02.55    \nframe=   29 fps=0.5 q=26.3 size=       0KiB time=00:00:00.90 bitrate=   0.4kbits/s speed=0.0143x elapsed=0:01:03.08    \nframe=   30 fps=0.5 q=26.2 size=     256KiB time=00:00:00.93 bitrate=2247.3kbits/s speed=0.0147x elapsed=0:01:03.63    \nframe=   30 fps=0.5 q=26.2 size=     256KiB time=00:00:00.93 bitrate=2247.3kbits/s speed=0.0145x elapsed=0:01:04.15    \nframe=   30 fps=0.5 q=26.2 size=     256KiB time=00:00:00.93 bitrate=2247.3kbits/s speed=0.0144x elapsed=0:01:04.68    \nframe=   30 fps=0.5 q=26.2 size=     256KiB time=00:00:00.93 bitrate=2247.3kbits/s speed=0.0143x elapsed=0:01:05.20    \nframe=   31 fps=0.5 q=26.2 size=     256KiB time=00:00:00.96 bitrate=2169.8kbits/s speed=0.0147x elapsed=0:01:05.74    \nframe=   31 fps=0.5 q=26.2 size=     256KiB time=00:00:00.96 bitrate=2169.8kbits/s speed=0.0146x elapsed=0:01:06.25    \nframe=   31 fps=0.5 q=26.2 size=     256KiB time=00:00:00.96 bitrate=2169.8kbits/s speed=0.0145x elapsed=0:01:06.77    \nframe=   31 fps=0.5 q=26.2 size=     256KiB time=00:00:00.96 bitrate=2169.8kbits/s speed=0.0144x elapsed=0:01:07.28    \nframe=   31 fps=0.5 q=26.2 size=     256KiB time=00:00:00.96 bitrate=2169.8kbits/s speed=0.0142x elapsed=0:01:07.84    \nframe=   32 fps=0.5 q=23.3 size=     256KiB time=00:00:01.00 bitrate=2097.5kbits/s speed=0.0146x elapsed=0:01:08.38    \nframe=   32 fps=0.5 q=23.3 size=     256KiB time=00:00:01.00 bitrate=2097.5kbits/s speed=0.0145x elapsed=0:01:08.93    \nframe=   32 fps=0.5 q=23.3 size=     256KiB time=00:00:01.00 bitrate=2097.5kbits/s speed=0.0144x elapsed=0:01:09.46    \nframe=   32 fps=0.5 q=23.3 size=     256KiB time=00:00:01.00 bitrate=2097.5kbits/s speed=0.0143x elapsed=0:01:09.97    \nframe=   33 fps=0.5 q=24.4 size=     256KiB time=00:00:01.03 bitrate=2029.8kbits/s speed=0.0147x elapsed=0:01:10.50    \nframe=   33 fps=0.5 q=24.4 size=     256KiB time=00:00:01.03 bitrate=2029.8kbits/s speed=0.0145x elapsed=0:01:11.03    \nframe=   33 fps=0.5 q=24.4 size=     256KiB time=00:00:01.03 bitrate=2029.8kbits/s speed=0.0144x elapsed=0:01:11.55    \nframe=   33 fps=0.5 q=24.4 size=     256KiB time=00:00:01.03 bitrate=2029.8kbits/s speed=0.0143x elapsed=0:01:12.07    \nframe=   33 fps=0.5 q=24.4 size=     256KiB time=00:00:01.03 bitrate=2029.8kbits/s speed=0.0142x elapsed=0:01:12.60    \nframe=   33 fps=0.5 q=24.4 size=     256KiB time=00:00:01.03 bitrate=2029.8kbits/s speed=0.0141x elapsed=0:01:13.12    \nframe=   34 fps=0.5 q=26.4 size=     256KiB time=00:00:01.06 bitrate=1966.4kbits/s speed=0.0145x elapsed=0:01:13.64    \nframe=   34 fps=0.5 q=26.4 size=     256KiB time=00:00:01.06 bitrate=1966.4kbits/s speed=0.0144x elapsed=0:01:14.16    \nframe=   34 fps=0.5 q=26.4 size=     256KiB time=00:00:01.06 bitrate=1966.4kbits/s speed=0.0143x elapsed=0:01:14.67    \nframe=   35 fps=0.5 q=26.3 size=     256KiB time=00:00:01.10 bitrate=1906.8kbits/s speed=0.0146x elapsed=0:01:15.19    \nframe=   35 fps=0.5 q=26.3 size=     256KiB time=00:00:01.10 bitrate=1906.8kbits/s speed=0.0145x elapsed=0:01:15.70    \nframe=   35 fps=0.5 q=26.3 size=     256KiB time=00:00:01.10 bitrate=1906.8kbits/s speed=0.0144x elapsed=0:01:16.23    \nframe=   35 fps=0.5 q=26.3 size=     256KiB time=00:00:01.10 bitrate=1906.8kbits/s speed=0.0143x elapsed=0:01:16.75    \nframe=   36 fps=0.5 q=23.5 size=     256KiB time=00:00:01.13 bitrate=1850.7kbits/s speed=0.0147x elapsed=0:01:17.27    \nframe=   36 fps=0.5 q=23.5 size=     256KiB time=00:00:01.13 bitrate=1850.7kbits/s speed=0.0146x elapsed=0:01:17.80    \nframe=   37 fps=0.5 q=24.1 size=     256KiB time=00:00:01.16 bitrate=1797.9kbits/s speed=0.0149x elapsed=0:01:18.31    \nframe=   38 fps=0.5 q=26.1 size=     256KiB time=00:00:01.20 bitrate=1747.9kbits/s speed=0.0152x elapsed=0:01:18.83    \nframe=   38 fps=0.5 q=26.1 size=     256KiB time=00:00:01.20 bitrate=1747.9kbits/s speed=0.0151x elapsed=0:01:19.39    \nframe=   38 fps=0.5 q=26.1 size=     256KiB time=00:00:01.20 bitrate=1747.9kbits/s speed=0.015x elapsed=0:01:19.91    \nframe=   38 fps=0.5 q=26.1 size=     256KiB time=00:00:01.20 bitrate=1747.9kbits/s speed=0.0149x elapsed=0:01:20.42    \nframe=   38 fps=0.5 q=26.1 size=     256KiB time=00:00:01.20 bitrate=1747.9kbits/s speed=0.0148x elapsed=0:01:20.94    \nframe=   38 fps=0.5 q=26.1 size=     256KiB time=00:00:01.20 bitrate=1747.9kbits/s speed=0.0147x elapsed=0:01:21.46    \nframe=   38 fps=0.5 q=26.1 size=     256KiB time=00:00:01.20 bitrate=1747.9kbits/s speed=0.0146x elapsed=0:01:21.97    \nframe=   39 fps=0.5 q=26.3 size=     256KiB time=00:00:01.23 bitrate=1700.7kbits/s speed=0.0149x elapsed=0:01:22.50    \nframe=   39 fps=0.5 q=26.3 size=     256KiB time=00:00:01.23 bitrate=1700.7kbits/s speed=0.0149x elapsed=0:01:23.02    \nframe=   39 fps=0.5 q=26.3 size=     256KiB time=00:00:01.23 bitrate=1700.7kbits/s speed=0.0148x elapsed=0:01:23.53    \nframe=   39 fps=0.5 q=26.3 size=     256KiB time=00:00:01.23 bitrate=1700.7kbits/s speed=0.0147x elapsed=0:01:24.05    \nframe=   40 fps=0.5 q=26.5 size=     256KiB time=00:00:01.26 bitrate=1655.9kbits/s speed=0.015x elapsed=0:01:24.61    \nframe=   40 fps=0.5 q=26.5 size=     256KiB time=00:00:01.26 bitrate=1655.9kbits/s speed=0.0149x elapsed=0:01:25.17    \nframe=   40 fps=0.5 q=26.5 size=     256KiB time=00:00:01.26 bitrate=1655.9kbits/s speed=0.0148x elapsed=0:01:25.69    \nframe=   40 fps=0.5 q=26.5 size=     256KiB time=00:00:01.26 bitrate=1655.9kbits/s speed=0.0147x elapsed=0:01:26.27    \nframe=   40 fps=0.5 q=26.5 size=     256KiB time=00:00:01.26 bitrate=1655.9kbits/s speed=0.0146x elapsed=0:01:26.83    \nframe=   40 fps=0.5 q=26.5 size=     256KiB time=00:00:01.26 bitrate=1655.9kbits/s speed=0.0145x elapsed=0:01:27.46    \nframe=   40 fps=0.5 q=26.5 size=     256KiB time=00:00:01.26 bitrate=1655.9kbits/s speed=0.0144x elapsed=0:01:28.08    \nframe=   40 fps=0.5 q=26.5 size=     256KiB time=00:00:01.26 bitrate=1655.9kbits/s speed=0.0143x elapsed=0:01:28.68    \nframe=   40 fps=0.4 q=26.5 size=     256KiB time=00:00:01.26 bitrate=1655.9kbits/s speed=0.0142x elapsed=0:01:29.28    \nframe=   40 fps=0.4 q=26.5 size=     256KiB time=00:00:01.26 bitrate=1655.9kbits/s speed=0.0141x elapsed=0:01:29.83    \nframe=   40 fps=0.4 q=26.5 size=     256KiB time=00:00:01.26 bitrate=1655.9kbits/s speed=0.014x elapsed=0:01:30.37    \nframe=   41 fps=0.5 q=23.6 size=     256KiB time=00:00:01.30 bitrate=1613.5kbits/s speed=0.0143x elapsed=0:01:30.90    \nframe=   41 fps=0.4 q=23.6 size=     256KiB time=00:00:01.30 bitrate=1613.5kbits/s speed=0.0142x elapsed=0:01:31.43    \nframe=   41 fps=0.4 q=23.6 size=     256KiB time=00:00:01.30 bitrate=1613.5kbits/s speed=0.0141x elapsed=0:01:31.96    \nframe=   41 fps=0.4 q=23.6 size=     256KiB time=00:00:01.30 bitrate=1613.5kbits/s speed=0.0141x elapsed=0:01:32.48    \nframe=   41 fps=0.4 q=23.6 size=     256KiB time=00:00:01.30 bitrate=1613.5kbits/s speed=0.014x elapsed=0:01:33.02    \nframe=   41 fps=0.4 q=23.6 size=     256KiB time=00:00:01.30 bitrate=1613.5kbits/s speed=0.0139x elapsed=0:01:33.53    \nframe=   42 fps=0.4 q=24.1 size=     256KiB time=00:00:01.33 bitrate=1573.1kbits/s speed=0.0142x elapsed=0:01:34.05    \nframe=   42 fps=0.4 q=24.1 size=     256KiB time=00:00:01.33 bitrate=1573.1kbits/s speed=0.0141x elapsed=0:01:34.56    \nframe=   42 fps=0.4 q=24.1 size=     256KiB time=00:00:01.33 bitrate=1573.1kbits/s speed=0.014x elapsed=0:01:35.08    \nframe=   42 fps=0.4 q=24.1 size=     256KiB time=00:00:01.33 bitrate=1573.1kbits/s speed=0.0139x elapsed=0:01:35.60    \nframe=   43 fps=0.4 q=26.3 size=     256KiB time=00:00:01.36 bitrate=1534.8kbits/s speed=0.0142x elapsed=0:01:36.14    \nframe=   43 fps=0.4 q=26.3 size=     256KiB time=00:00:01.36 bitrate=1534.8kbits/s speed=0.0141x elapsed=0:01:36.66    \nframe=   43 fps=0.4 q=26.3 size=     256KiB time=00:00:01.36 bitrate=1534.8kbits/s speed=0.0141x elapsed=0:01:37.18    \nframe=   43 fps=0.4 q=26.3 size=     256KiB time=00:00:01.36 bitrate=1534.8kbits/s speed=0.014x elapsed=0:01:37.68    \nframe=   43 fps=0.4 q=26.3 size=     256KiB time=00:00:01.36 bitrate=1534.8kbits/s speed=0.0139x elapsed=0:01:38.20    \nframe=   44 fps=0.4 q=26.3 size=     256KiB time=00:00:01.40 bitrate=1498.2kbits/s speed=0.0142x elapsed=0:01:38.72    \nframe=   44 fps=0.4 q=26.3 size=     256KiB time=00:00:01.40 bitrate=1498.2kbits/s speed=0.0141x elapsed=0:01:39.24    \nframe=   44 fps=0.4 q=26.3 size=     256KiB time=00:00:01.40 bitrate=1498.2kbits/s speed=0.014x elapsed=0:01:39.76    \nframe=   44 fps=0.4 q=26.3 size=     256KiB time=00:00:01.40 bitrate=1498.2kbits/s speed=0.014x elapsed=0:01:40.26    \nframe=   44 fps=0.4 q=26.3 size=     256KiB time=00:00:01.40 bitrate=1498.2kbits/s speed=0.0139x elapsed=0:01:40.79    \nframe=   45 fps=0.4 q=26.5 size=     256KiB time=00:00:01.43 bitrate=1463.4kbits/s speed=0.0141x elapsed=0:01:41.34    \nframe=   45 fps=0.4 q=26.5 size=     256KiB time=00:00:01.43 bitrate=1463.4kbits/s speed=0.0141x elapsed=0:01:41.87    \nframe=   45 fps=0.4 q=26.5 size=     256KiB time=00:00:01.43 bitrate=1463.4kbits/s speed=0.014x elapsed=0:01:42.40    \nframe=   46 fps=0.4 q=23.5 size=     256KiB time=00:00:01.46 bitrate=1430.1kbits/s speed=0.0142x elapsed=0:01:42.92    \nframe=   46 fps=0.4 q=23.5 size=     256KiB time=00:00:01.46 bitrate=1430.1kbits/s speed=0.0142x elapsed=0:01:43.45    \nframe=   46 fps=0.4 q=23.5 size=     256KiB time=00:00:01.46 bitrate=1430.1kbits/s speed=0.0141x elapsed=0:01:43.97    \nframe=   47 fps=0.4 q=25.4 size=     256KiB time=00:00:01.50 bitrate=1398.3kbits/s speed=0.0144x elapsed=0:01:44.48    \nframe=   47 fps=0.4 q=25.4 size=     256KiB time=00:00:01.50 bitrate=1398.3kbits/s speed=0.0143x elapsed=0:01:45.01    \nframe=   47 fps=0.4 q=25.4 size=     256KiB time=00:00:01.50 bitrate=1398.3kbits/s speed=0.0142x elapsed=0:01:45.51    \nframe=   47 fps=0.4 q=25.4 size=     256KiB time=00:00:01.50 bitrate=1398.3kbits/s speed=0.0141x elapsed=0:01:46.03    \nframe=   47 fps=0.4 q=25.4 size=     256KiB time=00:00:01.50 bitrate=1398.3kbits/s speed=0.0141x elapsed=0:01:46.55    \nframe=   48 fps=0.4 q=26.5 size=     256KiB time=00:00:01.53 bitrate=1367.9kbits/s speed=0.0143x elapsed=0:01:47.08    \nframe=   48 fps=0.4 q=26.5 size=     256KiB time=00:00:01.53 bitrate=1367.9kbits/s speed=0.0142x elapsed=0:01:47.62    \nframe=   48 fps=0.4 q=26.5 size=     256KiB time=00:00:01.53 bitrate=1367.9kbits/s speed=0.0142x elapsed=0:01:48.14    \nframe=   48 fps=0.4 q=26.5 size=     256KiB time=00:00:01.53 bitrate=1367.9kbits/s speed=0.0141x elapsed=0:01:48.66    \nframe=   48 fps=0.4 q=26.5 size=     256KiB time=00:00:01.53 bitrate=1367.9kbits/s speed=0.014x elapsed=0:01:49.18    \nframe=   49 fps=0.4 q=26.5 size=     256KiB time=00:00:01.56 bitrate=1338.8kbits/s speed=0.0143x elapsed=0:01:49.71    \nframe=   49 fps=0.4 q=26.5 size=     256KiB time=00:00:01.56 bitrate=1338.8kbits/s speed=0.0142x elapsed=0:01:50.23    \nframe=   49 fps=0.4 q=26.5 size=     256KiB time=00:00:01.56 bitrate=1338.8kbits/s speed=0.0141x elapsed=0:01:50.78    \nframe=   50 fps=0.4 q=26.6 size=     256KiB time=00:00:01.60 bitrate=1310.9kbits/s speed=0.0144x elapsed=0:01:51.30    \nframe=   50 fps=0.4 q=26.6 size=     256KiB time=00:00:01.60 bitrate=1310.9kbits/s speed=0.0143x elapsed=0:01:51.83    \nframe=   50 fps=0.4 q=26.6 size=     256KiB time=00:00:01.60 bitrate=1310.9kbits/s speed=0.0142x elapsed=0:01:52.37    \nframe=   51 fps=0.5 q=23.8 size=     256KiB time=00:00:01.63 bitrate=1284.2kbits/s speed=0.0145x elapsed=0:01:52.90    \nframe=   51 fps=0.4 q=23.8 size=     256KiB time=00:00:01.63 bitrate=1284.2kbits/s speed=0.0144x elapsed=0:01:53.40    \nframe=   51 fps=0.4 q=23.8 size=     256KiB time=00:00:01.63 bitrate=1284.2kbits/s speed=0.0143x elapsed=0:01:53.93    \nframe=   51 fps=0.4 q=23.8 size=     256KiB time=00:00:01.63 bitrate=1284.2kbits/s speed=0.0143x elapsed=0:01:54.45    \nframe=   52 fps=0.5 q=25.4 size=     512KiB time=00:00:01.66 bitrate=2516.8kbits/s speed=0.0145x elapsed=0:01:54.97    \nframe=   52 fps=0.5 q=25.4 size=     512KiB time=00:00:01.66 bitrate=2516.8kbits/s speed=0.0144x elapsed=0:01:55.48    \nframe=   52 fps=0.4 q=25.4 size=     512KiB time=00:00:01.66 bitrate=2516.8kbits/s speed=0.0144x elapsed=0:01:56.01    \nframe=   52 fps=0.4 q=25.4 size=     512KiB time=00:00:01.66 bitrate=2516.8kbits/s speed=0.0143x elapsed=0:01:56.54    \nframe=   52 fps=0.4 q=25.4 size=     512KiB time=00:00:01.66 bitrate=2516.8kbits/s speed=0.0142x elapsed=0:01:57.07    \nframe=   52 fps=0.4 q=25.4 size=     512KiB time=00:00:01.66 bitrate=2516.8kbits/s speed=0.0142x elapsed=0:01:57.59    \nframe=   53 fps=0.4 q=27.1 size=     512KiB time=00:00:01.70 bitrate=2467.4kbits/s speed=0.0144x elapsed=0:01:58.14    \nframe=   53 fps=0.4 q=27.1 size=     512KiB time=00:00:01.70 bitrate=2467.4kbits/s speed=0.0143x elapsed=0:01:58.69    \nframe=   53 fps=0.4 q=27.1 size=     512KiB time=00:00:01.70 bitrate=2467.4kbits/s speed=0.0143x elapsed=0:01:59.21    \nframe=   53 fps=0.4 q=27.1 size=     512KiB time=00:00:01.70 bitrate=2467.4kbits/s speed=0.0142x elapsed=0:01:59.74    \nframe=   53 fps=0.4 q=27.1 size=     512KiB time=00:00:01.70 bitrate=2467.4kbits/s speed=0.0141x elapsed=0:02:00.29    \nframe=   53 fps=0.4 q=27.1 size=     512KiB time=00:00:01.70 bitrate=2467.4kbits/s speed=0.0141x elapsed=0:02:00.82    \nframe=   54 fps=0.4 q=27.2 size=     512KiB time=00:00:01.73 bitrate=2420.0kbits/s speed=0.0143x elapsed=0:02:01.35    \nframe=   54 fps=0.4 q=27.2 size=     512KiB time=00:00:01.73 bitrate=2420.0kbits/s speed=0.0142x elapsed=0:02:01.87    \nframe=   55 fps=0.4 q=23.9 size=     512KiB time=00:00:01.73 bitrate=2420.0kbits/s speed=0.0142x elapsed=0:02:02.41    \nframe=   55 fps=0.4 q=23.9 size=     512KiB time=00:00:01.76 bitrate=2374.3kbits/s speed=0.0144x elapsed=0:02:02.93    \nframe=   55 fps=0.4 q=23.9 size=     512KiB time=00:00:01.76 bitrate=2374.3kbits/s speed=0.0143x elapsed=0:02:03.48    \nframe=   55 fps=0.4 q=23.9 size=     512KiB time=00:00:01.76 bitrate=2374.3kbits/s speed=0.0142x elapsed=0:02:04.02    \nframe=   55 fps=0.4 q=23.9 size=     512KiB time=00:00:01.76 bitrate=2374.3kbits/s speed=0.0142x elapsed=0:02:04.61    \nframe=   55 fps=0.4 q=23.9 size=     512KiB time=00:00:01.76 bitrate=2374.3kbits/s speed=0.0141x elapsed=0:02:05.22    \nframe=   56 fps=0.4 q=25.9 size=     512KiB time=00:00:01.76 bitrate=2374.3kbits/s speed=0.014x elapsed=0:02:05.75    \nframe=   56 fps=0.4 q=25.9 size=     512KiB time=00:00:01.80 bitrate=2330.4kbits/s speed=0.0143x elapsed=0:02:06.28    \nframe=   56 fps=0.4 q=25.9 size=     512KiB time=00:00:01.80 bitrate=2330.4kbits/s speed=0.0142x elapsed=0:02:06.82    \nframe=   56 fps=0.4 q=25.9 size=     512KiB time=00:00:01.80 bitrate=2330.4kbits/s speed=0.0141x elapsed=0:02:07.37    \nframe=   56 fps=0.4 q=25.9 size=     512KiB time=00:00:01.80 bitrate=2330.4kbits/s speed=0.0141x elapsed=0:02:07.91    \nframe=   56 fps=0.4 q=25.9 size=     512KiB time=00:00:01.80 bitrate=2330.4kbits/s speed=0.014x elapsed=0:02:08.45    \nframe=   57 fps=0.4 q=27.2 size=     512KiB time=00:00:01.83 bitrate=2288.0kbits/s speed=0.0142x elapsed=0:02:08.98    \nframe=   57 fps=0.4 q=27.2 size=     512KiB time=00:00:01.83 bitrate=2288.0kbits/s speed=0.0142x elapsed=0:02:09.50    \nframe=   57 fps=0.4 q=27.2 size=     512KiB time=00:00:01.83 bitrate=2288.0kbits/s speed=0.0141x elapsed=0:02:10.02    \nframe=   57 fps=0.4 q=27.2 size=     512KiB time=00:00:01.83 bitrate=2288.0kbits/s speed=0.014x elapsed=0:02:10.61    \nframe=   57 fps=0.4 q=27.2 size=     512KiB time=00:00:01.83 bitrate=2288.0kbits/s speed=0.014x elapsed=0:02:11.16    \nframe=   57 fps=0.4 q=27.2 size=     512KiB time=00:00:01.83 bitrate=2288.0kbits/s speed=0.0139x elapsed=0:02:11.72    \nframe=   57 fps=0.4 q=27.2 size=     512KiB time=00:00:01.83 bitrate=2288.0kbits/s speed=0.0139x elapsed=0:02:12.29    \nframe=   57 fps=0.4 q=27.2 size=     512KiB time=00:00:01.83 bitrate=2288.0kbits/s speed=0.0138x elapsed=0:02:12.84    \nframe=   57 fps=0.4 q=27.2 size=     512KiB time=00:00:01.83 bitrate=2288.0kbits/s speed=0.0137x elapsed=0:02:13.38    \nframe=   57 fps=0.4 q=27.2 size=     512KiB time=00:00:01.83 bitrate=2288.0kbits/s speed=0.0137x elapsed=0:02:13.91    \nframe=   57 fps=0.4 q=27.2 size=     512KiB time=00:00:01.83 bitrate=2288.0kbits/s speed=0.0136x elapsed=0:02:14.50    \nframe=   57 fps=0.4 q=27.2 size=     512KiB time=00:00:01.83 bitrate=2288.0kbits/s speed=0.0136x elapsed=0:02:15.06    \nframe=   57 fps=0.4 q=27.2 size=     512KiB time=00:00:01.83 bitrate=2288.0kbits/s speed=0.0135x elapsed=0:02:15.59    \nframe=   57 fps=0.4 q=27.2 size=     512KiB time=00:00:01.83 bitrate=2288.0kbits/s speed=0.0135x elapsed=0:02:16.11    \nframe=   57 fps=0.4 q=27.2 size=     512KiB time=00:00:01.83 bitrate=2288.0kbits/s speed=0.0134x elapsed=0:02:16.66    \nframe=   57 fps=0.4 q=27.2 size=     512KiB time=00:00:01.83 bitrate=2288.0kbits/s speed=0.0134x elapsed=0:02:17.23    \nframe=   57 fps=0.4 q=27.2 size=     512KiB time=00:00:01.83 bitrate=2288.0kbits/s speed=0.0133x elapsed=0:02:17.83    \nframe=   57 fps=0.4 q=27.2 size=     512KiB time=00:00:01.83 bitrate=2288.0kbits/s speed=0.0132x elapsed=0:02:18.39    \nframe=   57 fps=0.4 q=27.2 size=     512KiB time=00:00:01.83 bitrate=2288.0kbits/s speed=0.0132x elapsed=0:02:18.95    \nframe=   57 fps=0.4 q=27.2 size=     512KiB time=00:00:01.83 bitrate=2288.0kbits/s speed=0.0131x elapsed=0:02:19.50    \nframe=   58 fps=0.4 q=27.3 size=     512KiB time=00:00:01.86 bitrate=2247.1kbits/s speed=0.0133x elapsed=0:02:20.03    \nframe=   58 fps=0.4 q=27.3 size=     512KiB time=00:00:01.86 bitrate=2247.1kbits/s speed=0.0133x elapsed=0:02:20.58    \nframe=   58 fps=0.4 q=27.3 size=     512KiB time=00:00:01.86 bitrate=2247.1kbits/s speed=0.0132x elapsed=0:02:21.12    \nframe=   58 fps=0.4 q=27.3 size=     512KiB time=00:00:01.86 bitrate=2247.1kbits/s speed=0.0132x elapsed=0:02:21.64    \nframe=   59 fps=0.4 q=27.4 size=     512KiB time=00:00:01.90 bitrate=2207.7kbits/s speed=0.0134x elapsed=0:02:22.17    \nframe=   60 fps=0.4 q=23.9 size=     512KiB time=00:00:01.93 bitrate=2169.7kbits/s speed=0.0135x elapsed=0:02:22.70    \nframe=   60 fps=0.4 q=23.9 size=     512KiB time=00:00:01.93 bitrate=2169.7kbits/s speed=0.0135x elapsed=0:02:23.22    \nframe=   60 fps=0.4 q=23.9 size=     512KiB time=00:00:01.93 bitrate=2169.7kbits/s speed=0.0134x elapsed=0:02:23.74    \nframe=   61 fps=0.4 q=26.7 size=     512KiB time=00:00:01.96 bitrate=2132.9kbits/s speed=0.0136x elapsed=0:02:24.24    \nframe=   61 fps=0.4 q=26.7 size=     512KiB time=00:00:01.96 bitrate=2132.9kbits/s speed=0.0136x elapsed=0:02:24.77    \nframe=   61 fps=0.4 q=26.7 size=     512KiB time=00:00:01.96 bitrate=2132.9kbits/s speed=0.0135x elapsed=0:02:25.32    \nframe=   61 fps=0.4 q=26.7 size=     512KiB time=00:00:01.96 bitrate=2132.9kbits/s speed=0.0135x elapsed=0:02:25.82    \nframe=   61 fps=0.4 q=26.7 size=     512KiB time=00:00:01.96 bitrate=2132.9kbits/s speed=0.0134x elapsed=0:02:26.36    \nframe=   62 fps=0.4 q=27.4 size=     512KiB time=00:00:02.00 bitrate=2097.3kbits/s speed=0.0136x elapsed=0:02:26.88    \nframe=   62 fps=0.4 q=27.4 size=     512KiB time=00:00:02.00 bitrate=2097.3kbits/s speed=0.0136x elapsed=0:02:27.39    \nframe=   63 fps=0.4 q=28.3 size=     512KiB time=00:00:02.03 bitrate=2062.9kbits/s speed=0.0137x elapsed=0:02:27.91    \nframe=   63 fps=0.4 q=28.3 size=     512KiB time=00:00:02.03 bitrate=2062.9kbits/s speed=0.0137x elapsed=0:02:28.42    \nframe=   63 fps=0.4 q=28.3 size=     512KiB time=00:00:02.03 bitrate=2062.9kbits/s speed=0.0137x elapsed=0:02:28.95    \nframe=   63 fps=0.4 q=28.3 size=     512KiB time=00:00:02.03 bitrate=2062.9kbits/s speed=0.0136x elapsed=0:02:29.48    \nframe=   64 fps=0.4 q=27.7 size=     512KiB time=00:00:02.06 bitrate=2029.7kbits/s speed=0.0138x elapsed=0:02:29.98    \nframe=   64 fps=0.4 q=27.7 size=     512KiB time=00:00:02.06 bitrate=2029.7kbits/s speed=0.0137x elapsed=0:02:30.50    \nframe=   64 fps=0.4 q=27.7 size=     512KiB time=00:00:02.06 bitrate=2029.7kbits/s speed=0.0137x elapsed=0:02:31.01    \nframe=   64 fps=0.4 q=27.7 size=     512KiB time=00:00:02.06 bitrate=2029.7kbits/s speed=0.0136x elapsed=0:02:31.54    \nframe=   65 fps=0.4 q=24.4 size=     512KiB time=00:00:02.10 bitrate=1997.5kbits/s speed=0.0138x elapsed=0:02:32.08    \nframe=   66 fps=0.4 q=26.2 size=     512KiB time=00:00:02.13 bitrate=1966.2kbits/s speed=0.014x elapsed=0:02:32.59    \nframe=   66 fps=0.4 q=26.2 size=     512KiB time=00:00:02.13 bitrate=1966.2kbits/s speed=0.0139x elapsed=0:02:33.12    \nframe=   67 fps=0.4 q=27.7 size=     512KiB time=00:00:02.16 bitrate=1936.0kbits/s speed=0.0141x elapsed=0:02:33.63    \nframe=   67 fps=0.4 q=27.7 size=     512KiB time=00:00:02.16 bitrate=1936.0kbits/s speed=0.0141x elapsed=0:02:34.14    \nframe=   67 fps=0.4 q=27.7 size=     512KiB time=00:00:02.16 bitrate=1936.0kbits/s speed=0.014x elapsed=0:02:34.66    \nframe=   67 fps=0.4 q=27.7 size=     512KiB time=00:00:02.16 bitrate=1936.0kbits/s speed=0.014x elapsed=0:02:35.17    \nframe=   68 fps=0.4 q=28.5 size=     512KiB time=00:00:02.20 bitrate=1906.7kbits/s speed=0.0141x elapsed=0:02:35.70    \nframe=   68 fps=0.4 q=28.5 size=     512KiB time=00:00:02.20 bitrate=1906.7kbits/s speed=0.0141x elapsed=0:02:36.25    \nframe=   68 fps=0.4 q=28.5 size=     512KiB time=00:00:02.20 bitrate=1906.7kbits/s speed=0.014x elapsed=0:02:36.77    \nframe=   69 fps=0.4 q=28.4 size=     512KiB time=00:00:02.23 bitrate=1878.2kbits/s speed=0.0142x elapsed=0:02:37.28    \nframe=   69 fps=0.4 q=28.4 size=     512KiB time=00:00:02.23 bitrate=1878.2kbits/s speed=0.0142x elapsed=0:02:37.80    \nframe=   69 fps=0.4 q=28.4 size=     512KiB time=00:00:02.23 bitrate=1878.2kbits/s speed=0.0141x elapsed=0:02:38.31    \nframe=   69 fps=0.4 q=28.4 size=     512KiB time=00:00:02.23 bitrate=1878.2kbits/s speed=0.0141x elapsed=0:02:38.86    \nframe=   70 fps=0.4 q=24.5 size=     512KiB time=00:00:02.26 bitrate=1850.6kbits/s speed=0.0142x elapsed=0:02:39.38    \nframe=   70 fps=0.4 q=24.5 size=     512KiB time=00:00:02.26 bitrate=1850.6kbits/s speed=0.0142x elapsed=0:02:39.89    \nframe=   71 fps=0.4 q=27.4 size=     512KiB time=00:00:02.30 bitrate=1823.8kbits/s speed=0.0143x elapsed=0:02:40.41    \nframe=   72 fps=0.4 q=28.3 size=     512KiB time=00:00:02.33 bitrate=1797.7kbits/s speed=0.0145x elapsed=0:02:40.92    \nframe=   72 fps=0.4 q=28.3 size=     512KiB time=00:00:02.33 bitrate=1797.7kbits/s speed=0.0145x elapsed=0:02:41.43    \nframe=   72 fps=0.4 q=28.3 size=     512KiB time=00:00:02.33 bitrate=1797.7kbits/s speed=0.0144x elapsed=0:02:41.95    \nframe=   72 fps=0.4 q=28.3 size=     512KiB time=00:00:02.33 bitrate=1797.7kbits/s speed=0.0144x elapsed=0:02:42.49    \nframe=   73 fps=0.4 q=28.6 size=     512KiB time=00:00:02.36 bitrate=1772.4kbits/s speed=0.0145x elapsed=0:02:43.01    \nframe=   73 fps=0.4 q=28.6 size=     512KiB time=00:00:02.36 bitrate=1772.4kbits/s speed=0.0145x elapsed=0:02:43.54    \nframe=   73 fps=0.4 q=28.6 size=     512KiB time=00:00:02.36 bitrate=1772.4kbits/s speed=0.0144x elapsed=0:02:44.06    \nframe=   73 fps=0.4 q=28.6 size=     512KiB time=00:00:02.36 bitrate=1772.4kbits/s speed=0.0144x elapsed=0:02:44.60    \nframe=   73 fps=0.4 q=28.6 size=     512KiB time=00:00:02.36 bitrate=1772.4kbits/s speed=0.0143x elapsed=0:02:45.15    \nframe=   74 fps=0.4 q=28.6 size=     512KiB time=00:00:02.40 bitrate=1747.8kbits/s speed=0.0145x elapsed=0:02:45.65    \nframe=   74 fps=0.4 q=28.6 size=     512KiB time=00:00:02.40 bitrate=1747.8kbits/s speed=0.0144x elapsed=0:02:46.17    \nframe=   74 fps=0.4 q=28.6 size=     512KiB time=00:00:02.40 bitrate=1747.8kbits/s speed=0.0144x elapsed=0:02:46.72    \nframe=   74 fps=0.4 q=28.6 size=     512KiB time=00:00:02.40 bitrate=1747.8kbits/s speed=0.0143x elapsed=0:02:47.24    \nframe=   74 fps=0.4 q=28.6 size=     512KiB time=00:00:02.40 bitrate=1747.8kbits/s speed=0.0143x elapsed=0:02:47.79    \nframe=   75 fps=0.4 q=24.5 size=     768KiB time=00:00:02.43 bitrate=2585.7kbits/s speed=0.0145x elapsed=0:02:48.31    \nframe=   75 fps=0.4 q=24.5 size=     768KiB time=00:00:02.43 bitrate=2585.7kbits/s speed=0.0144x elapsed=0:02:48.83    \nframe=   75 fps=0.4 q=24.5 size=     768KiB time=00:00:02.43 bitrate=2585.7kbits/s speed=0.0144x elapsed=0:02:49.36    \nframe=   76 fps=0.4 q=26.8 size=     768KiB time=00:00:02.46 bitrate=2550.7kbits/s speed=0.0145x elapsed=0:02:49.87    \nframe=   76 fps=0.4 q=26.8 size=     768KiB time=00:00:02.46 bitrate=2550.7kbits/s speed=0.0145x elapsed=0:02:50.41    \nframe=   77 fps=0.5 q=28.7 size=     768KiB time=00:00:02.50 bitrate=2516.7kbits/s speed=0.0146x elapsed=0:02:50.93    \nframe=   77 fps=0.4 q=28.7 size=     768KiB time=00:00:02.50 bitrate=2516.7kbits/s speed=0.0146x elapsed=0:02:51.45    \nframe=   77 fps=0.4 q=28.7 size=     768KiB time=00:00:02.50 bitrate=2516.7kbits/s speed=0.0145x elapsed=0:02:51.97    \nframe=   77 fps=0.4 q=28.7 size=     768KiB time=00:00:02.50 bitrate=2516.7kbits/s speed=0.0145x elapsed=0:02:52.48    \nframe=   78 fps=0.5 q=28.7 size=     768KiB time=00:00:02.53 bitrate=2483.6kbits/s speed=0.0146x elapsed=0:02:53.01    \nframe=   78 fps=0.4 q=28.7 size=     768KiB time=00:00:02.53 bitrate=2483.6kbits/s speed=0.0146x elapsed=0:02:53.53    \nframe=   78 fps=0.4 q=28.7 size=     768KiB time=00:00:02.53 bitrate=2483.6kbits/s speed=0.0146x elapsed=0:02:54.07    \nframe=   78 fps=0.4 q=28.7 size=     768KiB time=00:00:02.53 bitrate=2483.6kbits/s speed=0.0145x elapsed=0:02:54.60    \nframe=   78 fps=0.4 q=28.7 size=     768KiB time=00:00:02.53 bitrate=2483.6kbits/s speed=0.0145x elapsed=0:02:55.13    \nframe=   78 fps=0.4 q=28.7 size=     768KiB time=00:00:02.53 bitrate=2483.6kbits/s speed=0.0144x elapsed=0:02:55.63    \nframe=   78 fps=0.4 q=28.7 size=     768KiB time=00:00:02.53 bitrate=2483.6kbits/s speed=0.0144x elapsed=0:02:56.16    \nframe=   78 fps=0.4 q=28.7 size=     768KiB time=00:00:02.53 bitrate=2483.6kbits/s speed=0.0143x elapsed=0:02:56.70    \nframe=   78 fps=0.4 q=28.7 size=     768KiB time=00:00:02.53 bitrate=2483.6kbits/s speed=0.0143x elapsed=0:02:57.22    \nframe=   78 fps=0.4 q=28.7 size=     768KiB time=00:00:02.53 bitrate=2483.6kbits/s speed=0.0143x elapsed=0:02:57.74    \nframe=   79 fps=0.4 q=24.6 size=     768KiB time=00:00:02.56 bitrate=2451.4kbits/s speed=0.0144x elapsed=0:02:58.24    \nframe=   80 fps=0.4 q=26.3 size=     768KiB time=00:00:02.60 bitrate=2419.9kbits/s speed=0.0145x elapsed=0:02:58.78    \nframe=   80 fps=0.4 q=26.3 size=     768KiB time=00:00:02.60 bitrate=2419.9kbits/s speed=0.0145x elapsed=0:02:59.31    \nframe=   80 fps=0.4 q=26.3 size=     768KiB time=00:00:02.60 bitrate=2419.9kbits/s speed=0.0145x elapsed=0:02:59.86    \nframe=   80 fps=0.4 q=26.3 size=     768KiB time=00:00:02.60 bitrate=2419.9kbits/s speed=0.0144x elapsed=0:03:00.45    \nframe=   80 fps=0.4 q=26.3 size=     768KiB time=00:00:02.60 bitrate=2419.9kbits/s speed=0.0144x elapsed=0:03:01.03    \nframe=   81 fps=0.4 q=28.4 size=     768KiB time=00:00:02.63 bitrate=2389.3kbits/s speed=0.0145x elapsed=0:03:01.58    \nframe=   82 fps=0.5 q=28.5 size=     768KiB time=00:00:02.66 bitrate=2359.4kbits/s speed=0.0146x elapsed=0:03:02.15    \nframe=   82 fps=0.4 q=28.5 size=     768KiB time=00:00:02.66 bitrate=2359.4kbits/s speed=0.0146x elapsed=0:03:02.70    \nframe=   82 fps=0.4 q=28.5 size=     768KiB time=00:00:02.66 bitrate=2359.4kbits/s speed=0.0146x elapsed=0:03:03.25    \nframe=   82 fps=0.4 q=28.5 size=     768KiB time=00:00:02.66 bitrate=2359.4kbits/s speed=0.0145x elapsed=0:03:03.82    \nframe=   82 fps=0.4 q=28.5 size=     768KiB time=00:00:02.66 bitrate=2359.4kbits/s speed=0.0145x elapsed=0:03:04.37    \nframe=   82 fps=0.4 q=28.5 size=     768KiB time=00:00:02.66 bitrate=2359.4kbits/s speed=0.0144x elapsed=0:03:04.92    \nframe=   82 fps=0.4 q=28.5 size=     768KiB time=00:00:02.66 bitrate=2359.4kbits/s speed=0.0144x elapsed=0:03:05.45    \nframe=   82 fps=0.4 q=28.5 size=     768KiB time=00:00:02.66 bitrate=2359.4kbits/s speed=0.0143x elapsed=0:03:06.02    \nframe=   82 fps=0.4 q=28.5 size=     768KiB time=00:00:02.66 bitrate=2359.4kbits/s speed=0.0143x elapsed=0:03:06.54    \nframe=   82 fps=0.4 q=28.5 size=     768KiB time=00:00:02.66 bitrate=2359.4kbits/s speed=0.0143x elapsed=0:03:07.09    \nframe=   83 fps=0.4 q=28.7 size=     768KiB time=00:00:02.70 bitrate=2330.3kbits/s speed=0.0144x elapsed=0:03:07.63    \nframe=   83 fps=0.4 q=28.7 size=     768KiB time=00:00:02.70 bitrate=2330.3kbits/s speed=0.0143x elapsed=0:03:08.17    \nframe=   83 fps=0.4 q=28.7 size=     768KiB time=00:00:02.70 bitrate=2330.3kbits/s speed=0.0143x elapsed=0:03:08.71    \nframe=   83 fps=0.4 q=28.7 size=     768KiB time=00:00:02.70 bitrate=2330.3kbits/s speed=0.0143x elapsed=0:03:09.28    \nframe=   83 fps=0.4 q=28.7 size=     768KiB time=00:00:02.70 bitrate=2330.3kbits/s speed=0.0142x elapsed=0:03:09.80    \nframe=   83 fps=0.4 q=28.7 size=     768KiB time=00:00:02.70 bitrate=2330.3kbits/s speed=0.0142x elapsed=0:03:10.37    \nframe=   83 fps=0.4 q=28.7 size=     768KiB time=00:00:02.70 bitrate=2330.3kbits/s speed=0.0141x elapsed=0:03:10.92    \nframe=   83 fps=0.4 q=28.7 size=     768KiB time=00:00:02.70 bitrate=2330.3kbits/s speed=0.0141x elapsed=0:03:11.49    \nframe=   83 fps=0.4 q=28.7 size=     768KiB time=00:00:02.70 bitrate=2330.3kbits/s speed=0.0141x elapsed=0:03:12.12    \nframe=   83 fps=0.4 q=28.7 size=     768KiB time=00:00:02.70 bitrate=2330.3kbits/s speed=0.014x elapsed=0:03:12.69    \nframe=   84 fps=0.4 q=24.8 size=     768KiB time=00:00:02.73 bitrate=2301.9kbits/s speed=0.0141x elapsed=0:03:13.20    \nframe=   84 fps=0.4 q=24.8 size=     768KiB time=00:00:02.73 bitrate=2301.9kbits/s speed=0.0141x elapsed=0:03:13.79    \nframe=   84 fps=0.4 q=24.8 size=     768KiB time=00:00:02.73 bitrate=2301.9kbits/s speed=0.0141x elapsed=0:03:14.39    \nframe=   84 fps=0.4 q=24.8 size=     768KiB time=00:00:02.73 bitrate=2301.9kbits/s speed=0.014x elapsed=0:03:14.92    \nframe=   84 fps=0.4 q=24.8 size=     768KiB time=00:00:02.73 bitrate=2301.9kbits/s speed=0.014x elapsed=0:03:15.44    \nframe=   85 fps=0.4 q=27.2 size=     768KiB time=00:00:02.76 bitrate=2274.1kbits/s speed=0.0141x elapsed=0:03:15.96    \nframe=   85 fps=0.4 q=27.2 size=     768KiB time=00:00:02.76 bitrate=2274.1kbits/s speed=0.0141x elapsed=0:03:16.48    \nframe=   85 fps=0.4 q=27.2 size=     768KiB time=00:00:02.76 bitrate=2274.1kbits/s speed=0.014x elapsed=0:03:17.00    \nframe=   85 fps=0.4 q=27.2 size=     768KiB time=00:00:02.76 bitrate=2274.1kbits/s speed=0.014x elapsed=0:03:17.52    \nframe=   86 fps=0.4 q=28.7 size=     768KiB time=00:00:02.80 bitrate=2247.1kbits/s speed=0.0141x elapsed=0:03:18.04    \nframe=   86 fps=0.4 q=28.7 size=     768KiB time=00:00:02.80 bitrate=2247.1kbits/s speed=0.0141x elapsed=0:03:18.56    \nframe=   86 fps=0.4 q=28.7 size=     768KiB time=00:00:02.80 bitrate=2247.1kbits/s speed=0.0141x elapsed=0:03:19.08    \nframe=   86 fps=0.4 q=28.7 size=     768KiB time=00:00:02.80 bitrate=2247.1kbits/s speed=0.014x elapsed=0:03:19.59    \nframe=   86 fps=0.4 q=28.7 size=     768KiB time=00:00:02.80 bitrate=2247.1kbits/s speed=0.014x elapsed=0:03:20.12    \nframe=   87 fps=0.4 q=29.5 size=     768KiB time=00:00:02.83 bitrate=2220.6kbits/s speed=0.0141x elapsed=0:03:20.66    \nframe=   87 fps=0.4 q=29.5 size=     768KiB time=00:00:02.83 bitrate=2220.6kbits/s speed=0.0141x elapsed=0:03:21.20    \nframe=   87 fps=0.4 q=29.5 size=     768KiB time=00:00:02.83 bitrate=2220.6kbits/s speed=0.014x elapsed=0:03:21.72    \nframe=   88 fps=0.4 q=29.3 size=     768KiB time=00:00:02.86 bitrate=2194.8kbits/s speed=0.0142x elapsed=0:03:22.24    \nframe=   88 fps=0.4 q=29.3 size=     768KiB time=00:00:02.86 bitrate=2194.8kbits/s speed=0.0141x elapsed=0:03:22.75    \nframe=   89 fps=0.4 q=24.7 size=     768KiB time=00:00:02.90 bitrate=2169.6kbits/s speed=0.0143x elapsed=0:03:23.28    \nframe=   89 fps=0.4 q=24.7 size=     768KiB time=00:00:02.90 bitrate=2169.6kbits/s speed=0.0142x elapsed=0:03:23.79    \nframe=   89 fps=0.4 q=24.7 size=     768KiB time=00:00:02.90 bitrate=2169.6kbits/s speed=0.0142x elapsed=0:03:24.32    \nframe=   90 fps=0.4 q=27.5 size=     768KiB time=00:00:02.93 bitrate=2144.9kbits/s speed=0.0143x elapsed=0:03:24.86    \nframe=   90 fps=0.4 q=27.5 size=     768KiB time=00:00:02.93 bitrate=2144.9kbits/s speed=0.0143x elapsed=0:03:25.38    \nframe=   91 fps=0.4 q=28.9 size=     768KiB time=00:00:02.96 bitrate=2120.8kbits/s speed=0.0144x elapsed=0:03:25.92    \nframe=   91 fps=0.4 q=28.9 size=     768KiB time=00:00:02.96 bitrate=2120.8kbits/s speed=0.0144x elapsed=0:03:26.44    \nframe=   91 fps=0.4 q=28.9 size=     768KiB time=00:00:02.96 bitrate=2120.8kbits/s speed=0.0143x elapsed=0:03:26.97    \nframe=   91 fps=0.4 q=28.9 size=     768KiB time=00:00:02.96 bitrate=2120.8kbits/s speed=0.0143x elapsed=0:03:27.51    \nframe=   92 fps=0.4 q=29.6 size=     768KiB time=00:00:03.00 bitrate=2097.3kbits/s speed=0.0144x elapsed=0:03:28.05    \nframe=   92 fps=0.4 q=29.6 size=     768KiB time=00:00:03.00 bitrate=2097.3kbits/s speed=0.0144x elapsed=0:03:28.60    \nframe=   92 fps=0.4 q=29.6 size=     768KiB time=00:00:03.00 bitrate=2097.3kbits/s speed=0.0143x elapsed=0:03:29.13    \nframe=   93 fps=0.4 q=29.5 size=     768KiB time=00:00:03.03 bitrate=2074.2kbits/s speed=0.0145x elapsed=0:03:29.65    \nframe=   93 fps=0.4 q=29.5 size=     768KiB time=00:00:03.03 bitrate=2074.2kbits/s speed=0.0144x elapsed=0:03:30.18    \nframe=   93 fps=0.4 q=29.5 size=     768KiB time=00:00:03.03 bitrate=2074.2kbits/s speed=0.0144x elapsed=0:03:30.70    \nframe=   93 fps=0.4 q=29.5 size=     768KiB time=00:00:03.03 bitrate=2074.2kbits/s speed=0.0144x elapsed=0:03:31.22    \nframe=   94 fps=0.4 q=25.4 size=     768KiB time=00:00:03.06 bitrate=2051.7kbits/s speed=0.0145x elapsed=0:03:31.74    \nframe=   94 fps=0.4 q=25.4 size=     768KiB time=00:00:03.06 bitrate=2051.7kbits/s speed=0.0144x elapsed=0:03:32.25    \nframe=   95 fps=0.4 q=28.1 size=     768KiB time=00:00:03.10 bitrate=2029.6kbits/s speed=0.0146x elapsed=0:03:32.77    \nframe=   96 fps=0.5 q=29.6 size=     768KiB time=00:00:03.13 bitrate=2008.0kbits/s speed=0.0147x elapsed=0:03:33.29    \nframe=   96 fps=0.4 q=29.6 size=     768KiB time=00:00:03.13 bitrate=2008.0kbits/s speed=0.0147x elapsed=0:03:33.81    \nframe=   96 fps=0.4 q=29.6 size=     768KiB time=00:00:03.13 bitrate=2008.0kbits/s speed=0.0146x elapsed=0:03:34.35    \nframe=   97 fps=0.5 q=30.0 size=     768KiB time=00:00:03.16 bitrate=1986.9kbits/s speed=0.0147x elapsed=0:03:34.90    \nframe=   97 fps=0.5 q=30.0 size=     768KiB time=00:00:03.16 bitrate=1986.9kbits/s speed=0.0147x elapsed=0:03:35.44    \nframe=   97 fps=0.4 q=30.0 size=     768KiB time=00:00:03.16 bitrate=1986.9kbits/s speed=0.0147x elapsed=0:03:35.95    \nframe=   98 fps=0.5 q=25.3 size=     768KiB time=00:00:03.20 bitrate=1966.2kbits/s speed=0.0148x elapsed=0:03:36.47    \nframe=   98 fps=0.5 q=25.3 size=     768KiB time=00:00:03.20 bitrate=1966.2kbits/s speed=0.0147x elapsed=0:03:36.99    \nframe=   98 fps=0.5 q=25.3 size=     768KiB time=00:00:03.20 bitrate=1966.2kbits/s speed=0.0147x elapsed=0:03:37.50    \nframe=   98 fps=0.4 q=25.3 size=     768KiB time=00:00:03.20 bitrate=1966.2kbits/s speed=0.0147x elapsed=0:03:38.02    \nframe=   98 fps=0.4 q=25.3 size=     768KiB time=00:00:03.20 bitrate=1966.2kbits/s speed=0.0146x elapsed=0:03:38.54    \nframe=   99 fps=0.5 q=27.9 size=    1024KiB time=00:00:03.23 bitrate=2594.5kbits/s speed=0.0148x elapsed=0:03:39.04    \nframe=   99 fps=0.5 q=27.9 size=    1024KiB time=00:00:03.23 bitrate=2594.5kbits/s speed=0.0147x elapsed=0:03:39.57    \nframe=   99 fps=0.4 q=27.9 size=    1024KiB time=00:00:03.23 bitrate=2594.5kbits/s speed=0.0147x elapsed=0:03:40.10    \nframe=   99 fps=0.4 q=27.9 size=    1024KiB time=00:00:03.23 bitrate=2594.5kbits/s speed=0.0147x elapsed=0:03:40.64    \nframe=  100 fps=0.5 q=29.7 size=    1024KiB time=00:00:03.26 bitrate=2568.0kbits/s speed=0.0148x elapsed=0:03:41.19    \nframe=  100 fps=0.5 q=29.7 size=    1024KiB time=00:00:03.26 bitrate=2568.0kbits/s speed=0.0147x elapsed=0:03:41.78    \nframe=  100 fps=0.4 q=29.7 size=    1024KiB time=00:00:03.26 bitrate=2568.0kbits/s speed=0.0147x elapsed=0:03:42.38    \nframe=  100 fps=0.4 q=29.7 size=    1024KiB time=00:00:03.26 bitrate=2568.0kbits/s speed=0.0147x elapsed=0:03:42.94    \nframe=  100 fps=0.4 q=29.7 size=    1024KiB time=00:00:03.26 bitrate=2568.0kbits/s speed=0.0146x elapsed=0:03:43.59    \nframe=  100 fps=0.4 q=29.7 size=    1024KiB time=00:00:03.26 bitrate=2568.0kbits/s speed=0.0146x elapsed=0:03:44.13    \nframe=  100 fps=0.4 q=29.7 size=    1024KiB time=00:00:03.26 bitrate=2568.0kbits/s speed=0.0145x elapsed=0:03:44.64    \nframe=  101 fps=0.4 q=30.0 size=    1024KiB time=00:00:03.30 bitrate=2542.1kbits/s speed=0.0147x elapsed=0:03:45.16    \nframe=  101 fps=0.4 q=30.0 size=    1024KiB time=00:00:03.30 bitrate=2542.1kbits/s speed=0.0146x elapsed=0:03:45.68    \nframe=  101 fps=0.4 q=30.0 size=    1024KiB time=00:00:03.30 bitrate=2542.1kbits/s speed=0.0146x elapsed=0:03:46.24    \nframe=  101 fps=0.4 q=30.0 size=    1024KiB time=00:00:03.30 bitrate=2542.1kbits/s speed=0.0146x elapsed=0:03:46.79    \nframe=  101 fps=0.4 q=30.0 size=    1024KiB time=00:00:03.30 bitrate=2542.1kbits/s speed=0.0145x elapsed=0:03:47.29    \nframe=  101 fps=0.4 q=30.0 size=    1024KiB time=00:00:03.30 bitrate=2542.1kbits/s speed=0.0145x elapsed=0:03:47.81    \nframe=  101 fps=0.4 q=30.0 size=    1024KiB time=00:00:03.30 bitrate=2542.1kbits/s speed=0.0145x elapsed=0:03:48.36    \nframe=  101 fps=0.4 q=30.0 size=    1024KiB time=00:00:03.30 bitrate=2542.1kbits/s speed=0.0144x elapsed=0:03:48.91    \nframe=  101 fps=0.4 q=30.0 size=    1024KiB time=00:00:03.30 bitrate=2542.1kbits/s speed=0.0144x elapsed=0:03:49.45    \nframe=  101 fps=0.4 q=30.0 size=    1024KiB time=00:00:03.30 bitrate=2542.1kbits/s speed=0.0143x elapsed=0:03:50.01    \nframe=  101 fps=0.4 q=30.0 size=    1024KiB time=00:00:03.30 bitrate=2542.1kbits/s speed=0.0143x elapsed=0:03:50.53    \nframe=  101 fps=0.4 q=30.0 size=    1024KiB time=00:00:03.30 bitrate=2542.1kbits/s speed=0.0143x elapsed=0:03:51.07    \nframe=  101 fps=0.4 q=30.0 size=    1024KiB time=00:00:03.30 bitrate=2542.1kbits/s speed=0.0142x elapsed=0:03:51.63    \nframe=  101 fps=0.4 q=30.0 size=    1024KiB time=00:00:03.30 bitrate=2542.1kbits/s speed=0.0142x elapsed=0:03:52.22    \nframe=  102 fps=0.4 q=29.8 size=    1024KiB time=00:00:03.33 bitrate=2516.7kbits/s speed=0.0143x elapsed=0:03:52.80    \nframe=  102 fps=0.4 q=29.8 size=    1024KiB time=00:00:03.33 bitrate=2516.7kbits/s speed=0.0143x elapsed=0:03:53.35    \nframe=  102 fps=0.4 q=29.8 size=    1024KiB time=00:00:03.33 bitrate=2516.7kbits/s speed=0.0142x elapsed=0:03:53.93    \nframe=  102 fps=0.4 q=29.8 size=    1024KiB time=00:00:03.33 bitrate=2516.7kbits/s speed=0.0142x elapsed=0:03:54.51    \nframe=  102 fps=0.4 q=29.8 size=    1024KiB time=00:00:03.33 bitrate=2516.7kbits/s speed=0.0142x elapsed=0:03:55.07    \nframe=  103 fps=0.4 q=25.6 size=    1024KiB time=00:00:03.36 bitrate=2491.8kbits/s speed=0.0143x elapsed=0:03:55.65    \nframe=  103 fps=0.4 q=25.6 size=    1024KiB time=00:00:03.36 bitrate=2491.8kbits/s speed=0.0143x elapsed=0:03:56.19    \nframe=  103 fps=0.4 q=25.6 size=    1024KiB time=00:00:03.36 bitrate=2491.8kbits/s speed=0.0142x elapsed=0:03:56.81    \nframe=  103 fps=0.4 q=25.6 size=    1024KiB time=00:00:03.36 bitrate=2491.8kbits/s speed=0.0142x elapsed=0:03:57.46    \nframe=  103 fps=0.4 q=25.6 size=    1024KiB time=00:00:03.36 bitrate=2491.8kbits/s speed=0.0141x elapsed=0:03:58.06    \nframe=  103 fps=0.4 q=25.6 size=    1024KiB time=00:00:03.36 bitrate=2491.8kbits/s speed=0.0141x elapsed=0:03:58.62    \nframe=  103 fps=0.4 q=25.6 size=    1024KiB time=00:00:03.36 bitrate=2491.8kbits/s speed=0.0141x elapsed=0:03:59.13    \nframe=  103 fps=0.4 q=25.6 size=    1024KiB time=00:00:03.36 bitrate=2491.8kbits/s speed=0.014x elapsed=0:03:59.65    \nframe=  104 fps=0.4 q=28.1 size=    1024KiB time=00:00:03.40 bitrate=2467.3kbits/s speed=0.0142x elapsed=0:04:00.18    \nframe=  104 fps=0.4 q=28.1 size=    1024KiB time=00:00:03.40 bitrate=2467.3kbits/s speed=0.0141x elapsed=0:04:00.77    \nframe=  104 fps=0.4 q=28.1 size=    1024KiB time=00:00:03.40 bitrate=2467.3kbits/s speed=0.0141x elapsed=0:04:01.33    \nframe=  105 fps=0.4 q=29.6 size=    1024KiB time=00:00:03.43 bitrate=2443.4kbits/s speed=0.0142x elapsed=0:04:01.92    \nframe=  105 fps=0.4 q=29.6 size=    1024KiB time=00:00:03.43 bitrate=2443.4kbits/s speed=0.0142x elapsed=0:04:02.43    \nframe=  105 fps=0.4 q=29.6 size=    1024KiB time=00:00:03.43 bitrate=2443.4kbits/s speed=0.0141x elapsed=0:04:02.96    \nframe=  106 fps=0.4 q=30.1 size=    1024KiB time=00:00:03.46 bitrate=2419.9kbits/s speed=0.0142x elapsed=0:04:03.47    \nframe=  106 fps=0.4 q=30.1 size=    1024KiB time=00:00:03.46 bitrate=2419.9kbits/s speed=0.0142x elapsed=0:04:04.02    \nframe=  106 fps=0.4 q=30.1 size=    1024KiB time=00:00:03.46 bitrate=2419.9kbits/s speed=0.0142x elapsed=0:04:04.62    \nframe=  106 fps=0.4 q=30.1 size=    1024KiB time=00:00:03.46 bitrate=2419.9kbits/s speed=0.0141x elapsed=0:04:05.14    \nframe=  106 fps=0.4 q=30.1 size=    1024KiB time=00:00:03.46 bitrate=2419.9kbits/s speed=0.0141x elapsed=0:04:05.67    \nframe=  107 fps=0.4 q=29.9 size=    1024KiB time=00:00:03.50 bitrate=2396.8kbits/s speed=0.0142x elapsed=0:04:06.21    \nframe=  107 fps=0.4 q=29.9 size=    1024KiB time=00:00:03.50 bitrate=2396.8kbits/s speed=0.0142x elapsed=0:04:06.73    \nframe=  107 fps=0.4 q=29.9 size=    1024KiB time=00:00:03.50 bitrate=2396.8kbits/s speed=0.0142x elapsed=0:04:07.26    \nframe=  107 fps=0.4 q=29.9 size=    1024KiB time=00:00:03.50 bitrate=2396.8kbits/s speed=0.0141x elapsed=0:04:07.79    \nframe=  108 fps=0.4 q=26.1 size=    1024KiB time=00:00:03.53 bitrate=2374.2kbits/s speed=0.0142x elapsed=0:04:08.31    \nframe=  108 fps=0.4 q=26.1 size=    1024KiB time=00:00:03.53 bitrate=2374.2kbits/s speed=0.0142x elapsed=0:04:08.83    \nframe=  108 fps=0.4 q=26.1 size=    1024KiB time=00:00:03.53 bitrate=2374.2kbits/s speed=0.0142x elapsed=0:04:09.39    \nframe=  109 fps=0.4 q=28.1 size=    1024KiB time=00:00:03.56 bitrate=2352.0kbits/s speed=0.0143x elapsed=0:04:09.92    \nframe=  109 fps=0.4 q=28.1 size=    1024KiB time=00:00:03.56 bitrate=2352.0kbits/s speed=0.0142x elapsed=0:04:10.46    \nframe=  109 fps=0.4 q=28.1 size=    1024KiB time=00:00:03.56 bitrate=2352.0kbits/s speed=0.0142x elapsed=0:04:11.05    \nframe=  109 fps=0.4 q=28.1 size=    1024KiB time=00:00:03.56 bitrate=2352.0kbits/s speed=0.0142x elapsed=0:04:11.63    \nframe=  109 fps=0.4 q=28.1 size=    1024KiB time=00:00:03.56 bitrate=2352.0kbits/s speed=0.0141x elapsed=0:04:12.22    \nframe=  109 fps=0.4 q=28.1 size=    1024KiB time=00:00:03.56 bitrate=2352.0kbits/s speed=0.0141x elapsed=0:04:12.73    \nframe=  109 fps=0.4 q=28.1 size=    1024KiB time=00:00:03.56 bitrate=2352.0kbits/s speed=0.0141x elapsed=0:04:13.25    \nframe=  109 fps=0.4 q=28.1 size=    1024KiB time=00:00:03.56 bitrate=2352.0kbits/s speed=0.0141x elapsed=0:04:13.77    \nframe=  109 fps=0.4 q=28.1 size=    1024KiB time=00:00:03.56 bitrate=2352.0kbits/s speed=0.014x elapsed=0:04:14.28    \nframe=  110 fps=0.4 q=29.8 size=    1024KiB time=00:00:03.60 bitrate=2330.3kbits/s speed=0.0141x elapsed=0:04:14.80    \nframe=  110 fps=0.4 q=29.8 size=    1024KiB time=00:00:03.60 bitrate=2330.3kbits/s speed=0.0141x elapsed=0:04:15.32    \nframe=  110 fps=0.4 q=29.8 size=    1024KiB time=00:00:03.60 bitrate=2330.3kbits/s speed=0.0141x elapsed=0:04:15.87    \nframe=  110 fps=0.4 q=29.8 size=    1024KiB time=00:00:03.60 bitrate=2330.3kbits/s speed=0.014x elapsed=0:04:16.41    \nframe=  110 fps=0.4 q=29.8 size=    1024KiB time=00:00:03.60 bitrate=2330.3kbits/s speed=0.014x elapsed=0:04:16.96    \nframe=  110 fps=0.4 q=29.8 size=    1024KiB time=00:00:03.60 bitrate=2330.3kbits/s speed=0.014x elapsed=0:04:17.50    \nframe=  110 fps=0.4 q=29.8 size=    1024KiB time=00:00:03.60 bitrate=2330.3kbits/s speed=0.0139x elapsed=0:04:18.09    \nframe=  111 fps=0.4 q=30.6 size=    1024KiB time=00:00:03.63 bitrate=2308.9kbits/s speed=0.014x elapsed=0:04:18.69    \nframe=  111 fps=0.4 q=30.6 size=    1024KiB time=00:00:03.63 bitrate=2308.9kbits/s speed=0.014x elapsed=0:04:19.23    \nframe=  111 fps=0.4 q=30.6 size=    1024KiB time=00:00:03.63 bitrate=2308.9kbits/s speed=0.014x elapsed=0:04:19.82    \nframe=  111 fps=0.4 q=30.6 size=    1024KiB time=00:00:03.63 bitrate=2308.9kbits/s speed=0.014x elapsed=0:04:20.41    \nframe=  111 fps=0.4 q=30.6 size=    1024KiB time=00:00:03.63 bitrate=2308.9kbits/s speed=0.0139x elapsed=0:04:20.97    \nframe=  112 fps=0.4 q=30.6 size=    1024KiB time=00:00:03.66 bitrate=2287.9kbits/s speed=0.014x elapsed=0:04:21.52    \nframe=  112 fps=0.4 q=30.6 size=    1024KiB time=00:00:03.66 bitrate=2287.9kbits/s speed=0.014x elapsed=0:04:22.08    \nframe=  112 fps=0.4 q=30.6 size=    1024KiB time=00:00:03.66 bitrate=2287.9kbits/s speed=0.014x elapsed=0:04:22.65    \nframe=  112 fps=0.4 q=30.6 size=    1024KiB time=00:00:03.66 bitrate=2287.9kbits/s speed=0.0139x elapsed=0:04:23.21    \nframe=  112 fps=0.4 q=30.6 size=    1024KiB time=00:00:03.66 bitrate=2287.9kbits/s speed=0.0139x elapsed=0:04:23.78    \nframe=  112 fps=0.4 q=30.6 size=    1024KiB time=00:00:03.66 bitrate=2287.9kbits/s speed=0.0139x elapsed=0:04:24.39    \nframe=  112 fps=0.4 q=30.6 size=    1024KiB time=00:00:03.66 bitrate=2287.9kbits/s speed=0.0138x elapsed=0:04:24.98    \nframe=  112 fps=0.4 q=30.6 size=    1024KiB time=00:00:03.66 bitrate=2287.9kbits/s speed=0.0138x elapsed=0:04:25.54    \nframe=  112 fps=0.4 q=30.6 size=    1024KiB time=00:00:03.66 bitrate=2287.9kbits/s speed=0.0138x elapsed=0:04:26.09    \nframe=  112 fps=0.4 q=30.6 size=    1024KiB time=00:00:03.66 bitrate=2287.9kbits/s speed=0.0138x elapsed=0:04:26.61    \nframe=  112 fps=0.4 q=30.6 size=    1024KiB time=00:00:03.66 bitrate=2287.9kbits/s speed=0.0137x elapsed=0:04:27.16    \nframe=  112 fps=0.4 q=30.6 size=    1024KiB time=00:00:03.66 bitrate=2287.9kbits/s speed=0.0137x elapsed=0:04:27.76    \nframe=  112 fps=0.4 q=30.6 size=    1024KiB time=00:00:03.66 bitrate=2287.9kbits/s speed=0.0137x elapsed=0:04:28.31    \nframe=  112 fps=0.4 q=30.6 size=    1024KiB time=00:00:03.66 bitrate=2287.9kbits/s speed=0.0136x elapsed=0:04:28.90    \nframe=  112 fps=0.4 q=30.6 size=    1024KiB time=00:00:03.66 bitrate=2287.9kbits/s speed=0.0136x elapsed=0:04:29.49    \nframe=  112 fps=0.4 q=30.6 size=    1024KiB time=00:00:03.66 bitrate=2287.9kbits/s speed=0.0136x elapsed=0:04:30.12    \nframe=  112 fps=0.4 q=30.6 size=    1024KiB time=00:00:03.66 bitrate=2287.9kbits/s speed=0.0135x elapsed=0:04:30.71    \nframe=  112 fps=0.4 q=30.6 size=    1024KiB time=00:00:03.66 bitrate=2287.9kbits/s speed=0.0135x elapsed=0:04:31.27    \nframe=  112 fps=0.4 q=30.6 size=    1024KiB time=00:00:03.66 bitrate=2287.9kbits/s speed=0.0135x elapsed=0:04:31.83    \nframe=  113 fps=0.4 q=27.1 size=    1024KiB time=00:00:03.70 bitrate=2267.3kbits/s speed=0.0136x elapsed=0:04:32.36    \nframe=  113 fps=0.4 q=27.1 size=    1024KiB time=00:00:03.70 bitrate=2267.3kbits/s speed=0.0136x elapsed=0:04:32.90    \nframe=  113 fps=0.4 q=27.1 size=    1024KiB time=00:00:03.70 bitrate=2267.3kbits/s speed=0.0135x elapsed=0:04:33.43    \nframe=  113 fps=0.4 q=27.1 size=    1024KiB time=00:00:03.70 bitrate=2267.3kbits/s speed=0.0135x elapsed=0:04:33.95    \nframe=  113 fps=0.4 q=27.1 size=    1024KiB time=00:00:03.70 bitrate=2267.3kbits/s speed=0.0135x elapsed=0:04:34.47    \nframe=  113 fps=0.4 q=27.1 size=    1024KiB time=00:00:03.70 bitrate=2267.3kbits/s speed=0.0135x elapsed=0:04:35.01    \nframe=  114 fps=0.4 q=29.6 size=    1024KiB time=00:00:03.73 bitrate=2247.0kbits/s speed=0.0135x elapsed=0:04:35.53    \nframe=  114 fps=0.4 q=29.6 size=    1024KiB time=00:00:03.73 bitrate=2247.0kbits/s speed=0.0135x elapsed=0:04:36.05    \nframe=  114 fps=0.4 q=29.6 size=    1024KiB time=00:00:03.73 bitrate=2247.0kbits/s speed=0.0135x elapsed=0:04:36.56    \nframe=  114 fps=0.4 q=29.6 size=    1024KiB time=00:00:03.73 bitrate=2247.0kbits/s speed=0.0135x elapsed=0:04:37.10    \nframe=  114 fps=0.4 q=29.6 size=    1024KiB time=00:00:03.73 bitrate=2247.0kbits/s speed=0.0134x elapsed=0:04:37.63    \nframe=  115 fps=0.4 q=30.9 size=    1024KiB time=00:00:03.76 bitrate=2227.2kbits/s speed=0.0135x elapsed=0:04:38.18    \nframe=  115 fps=0.4 q=30.9 size=    1024KiB time=00:00:03.76 bitrate=2227.2kbits/s speed=0.0135x elapsed=0:04:38.72    \nframe=  115 fps=0.4 q=30.9 size=    1024KiB time=00:00:03.76 bitrate=2227.2kbits/s speed=0.0135x elapsed=0:04:39.24    \nframe=  115 fps=0.4 q=30.9 size=    1024KiB time=00:00:03.76 bitrate=2227.2kbits/s speed=0.0135x elapsed=0:04:39.74    \nframe=  115 fps=0.4 q=30.9 size=    1024KiB time=00:00:03.76 bitrate=2227.2kbits/s speed=0.0134x elapsed=0:04:40.28    \nframe=  116 fps=0.4 q=31.3 size=    1024KiB time=00:00:03.80 bitrate=2207.6kbits/s speed=0.0135x elapsed=0:04:40.80    \nframe=  117 fps=0.4 q=27.0 size=    1024KiB time=00:00:03.83 bitrate=2188.4kbits/s speed=0.0136x elapsed=0:04:41.35    \nframe=  117 fps=0.4 q=27.0 size=    1024KiB time=00:00:03.83 bitrate=2188.4kbits/s speed=0.0136x elapsed=0:04:41.88    \nframe=  117 fps=0.4 q=27.0 size=    1024KiB time=00:00:03.83 bitrate=2188.4kbits/s speed=0.0136x elapsed=0:04:42.43    \nframe=  118 fps=0.4 q=29.7 size=    1024KiB time=00:00:03.86 bitrate=2169.6kbits/s speed=0.0137x elapsed=0:04:42.96    \nframe=  118 fps=0.4 q=29.7 size=    1024KiB time=00:00:03.86 bitrate=2169.6kbits/s speed=0.0136x elapsed=0:04:43.48    \nframe=  118 fps=0.4 q=29.7 size=    1024KiB time=00:00:03.86 bitrate=2169.6kbits/s speed=0.0136x elapsed=0:04:44.00    \nframe=  118 fps=0.4 q=29.7 size=    1024KiB time=00:00:03.86 bitrate=2169.6kbits/s speed=0.0136x elapsed=0:04:44.53    \nframe=  119 fps=0.4 q=31.3 size=    1024KiB time=00:00:03.90 bitrate=2151.0kbits/s speed=0.0137x elapsed=0:04:45.08    \nframe=  119 fps=0.4 q=31.3 size=    1024KiB time=00:00:03.90 bitrate=2151.0kbits/s speed=0.0137x elapsed=0:04:45.61    \nframe=  119 fps=0.4 q=31.3 size=    1024KiB time=00:00:03.90 bitrate=2151.0kbits/s speed=0.0136x elapsed=0:04:46.14    \nframe=  119 fps=0.4 q=31.3 size=    1024KiB time=00:00:03.90 bitrate=2151.0kbits/s speed=0.0136x elapsed=0:04:46.67    \nframe=  119 fps=0.4 q=31.3 size=    1024KiB time=00:00:03.90 bitrate=2151.0kbits/s speed=0.0136x elapsed=0:04:47.20    \nframe=  120 fps=0.4 q=27.2 size=    1024KiB time=00:00:03.93 bitrate=2132.8kbits/s speed=0.0137x elapsed=0:04:47.74    \nframe=  121 fps=0.4 q=30.0 size=    1024KiB time=00:00:03.96 bitrate=2114.9kbits/s speed=0.0138x elapsed=0:04:48.25    \nframe=  121 fps=0.4 q=30.0 size=    1024KiB time=00:00:03.96 bitrate=2114.9kbits/s speed=0.0137x elapsed=0:04:48.79    \nframe=  121 fps=0.4 q=30.0 size=    1024KiB time=00:00:03.96 bitrate=2114.9kbits/s speed=0.0137x elapsed=0:04:49.33    \nframe=  122 fps=0.4 q=31.7 size=    1280KiB time=00:00:04.00 bitrate=2621.5kbits/s speed=0.0138x elapsed=0:04:49.85    \nframe=  122 fps=0.4 q=31.7 size=    1280KiB time=00:00:04.00 bitrate=2621.5kbits/s speed=0.0138x elapsed=0:04:50.39    \nframe=  123 fps=0.4 q=32.1 size=    1280KiB time=00:00:04.03 bitrate=2599.9kbits/s speed=0.0139x elapsed=0:04:50.90    \nframe=  123 fps=0.4 q=32.1 size=    1280KiB time=00:00:04.03 bitrate=2599.9kbits/s speed=0.0138x elapsed=0:04:51.42    \nframe=  123 fps=0.4 q=32.1 size=    1280KiB time=00:00:04.03 bitrate=2599.9kbits/s speed=0.0138x elapsed=0:04:51.93    \nframe=  123 fps=0.4 q=32.1 size=    1280KiB time=00:00:04.03 bitrate=2599.9kbits/s speed=0.0138x elapsed=0:04:52.47    \nframe=  123 fps=0.4 q=32.1 size=    1280KiB time=00:00:04.03 bitrate=2599.9kbits/s speed=0.0138x elapsed=0:04:52.99    \nframe=  124 fps=0.4 q=27.4 size=    1280KiB time=00:00:04.06 bitrate=2578.6kbits/s speed=0.0139x elapsed=0:04:53.57    \nframe=  124 fps=0.4 q=27.4 size=    1280KiB time=00:00:04.06 bitrate=2578.6kbits/s speed=0.0138x elapsed=0:04:54.11    \nframe=  124 fps=0.4 q=27.4 size=    1280KiB time=00:00:04.06 bitrate=2578.6kbits/s speed=0.0138x elapsed=0:04:54.64    \nframe=  125 fps=0.4 q=30.5 size=    1280KiB time=00:00:04.10 bitrate=2557.6kbits/s speed=0.0139x elapsed=0:04:55.15    \nframe=  125 fps=0.4 q=30.5 size=    1280KiB time=00:00:04.10 bitrate=2557.6kbits/s speed=0.0139x elapsed=0:04:55.67    \nframe=  125 fps=0.4 q=30.5 size=    1280KiB time=00:00:04.10 bitrate=2557.6kbits/s speed=0.0138x elapsed=0:04:56.20    \nframe=  126 fps=0.4 q=32.5 size=    1280KiB time=00:00:04.13 bitrate=2537.0kbits/s speed=0.0139x elapsed=0:04:56.73    \nframe=  126 fps=0.4 q=32.5 size=    1280KiB time=00:00:04.13 bitrate=2537.0kbits/s speed=0.0139x elapsed=0:04:57.24    \nframe=  126 fps=0.4 q=32.5 size=    1280KiB time=00:00:04.13 bitrate=2537.0kbits/s speed=0.0139x elapsed=0:04:57.80    \nframe=  126 fps=0.4 q=32.5 size=    1280KiB time=00:00:04.13 bitrate=2537.0kbits/s speed=0.0139x elapsed=0:04:58.33    \nframe=  126 fps=0.4 q=32.5 size=    1280KiB time=00:00:04.13 bitrate=2537.0kbits/s speed=0.0138x elapsed=0:04:58.87    \nframe=  127 fps=0.4 q=32.6 size=    1280KiB time=00:00:04.16 bitrate=2516.7kbits/s speed=0.0139x elapsed=0:04:59.37    \nframe=  127 fps=0.4 q=32.6 size=    1280KiB time=00:00:04.16 bitrate=2516.7kbits/s speed=0.0139x elapsed=0:04:59.89    \nframe=  128 fps=0.4 q=27.3 size=    1280KiB time=00:00:04.20 bitrate=2496.7kbits/s speed=0.014x elapsed=0:05:00.43    \nframe=  128 fps=0.4 q=27.3 size=    1280KiB time=00:00:04.20 bitrate=2496.7kbits/s speed=0.014x elapsed=0:05:00.96    \nframe=  129 fps=0.4 q=30.5 size=    1280KiB time=00:00:04.23 bitrate=2477.0kbits/s speed=0.014x elapsed=0:05:01.49    \nframe=  129 fps=0.4 q=30.5 size=    1280KiB time=00:00:04.23 bitrate=2477.0kbits/s speed=0.014x elapsed=0:05:02.04    \nframe=  129 fps=0.4 q=30.5 size=    1280KiB time=00:00:04.23 bitrate=2477.0kbits/s speed=0.014x elapsed=0:05:02.61    \nframe=  129 fps=0.4 q=30.5 size=    1280KiB time=00:00:04.23 bitrate=2477.0kbits/s speed=0.014x elapsed=0:05:03.12    \nframe=  129 fps=0.4 q=30.5 size=    1280KiB time=00:00:04.23 bitrate=2477.0kbits/s speed=0.0139x elapsed=0:05:03.65    \nframe=  129 fps=0.4 q=30.5 size=    1280KiB time=00:00:04.23 bitrate=2477.0kbits/s speed=0.0139x elapsed=0:05:04.18    \nframe=  130 fps=0.4 q=32.4 size=    1280KiB time=00:00:04.26 bitrate=2457.7kbits/s speed=0.014x elapsed=0:05:04.70    \nframe=  131 fps=0.4 q=32.9 size=    1280KiB time=00:00:04.30 bitrate=2438.6kbits/s speed=0.0141x elapsed=0:05:05.25    \nframe=  131 fps=0.4 q=32.9 size=    1280KiB time=00:00:04.30 bitrate=2438.6kbits/s speed=0.0141x elapsed=0:05:05.78    \nframe=  131 fps=0.4 q=32.9 size=    1280KiB time=00:00:04.30 bitrate=2438.6kbits/s speed=0.014x elapsed=0:05:06.34    \nframe=  131 fps=0.4 q=32.9 size=    1280KiB time=00:00:04.30 bitrate=2438.6kbits/s speed=0.014x elapsed=0:05:06.89    \nframe=  131 fps=0.4 q=32.9 size=    1280KiB time=00:00:04.30 bitrate=2438.6kbits/s speed=0.014x elapsed=0:05:07.43    \nframe=  132 fps=0.4 q=27.2 size=    1280KiB time=00:00:04.33 bitrate=2419.9kbits/s speed=0.0141x elapsed=0:05:07.93    \nframe=  132 fps=0.4 q=27.2 size=    1280KiB time=00:00:04.33 bitrate=2419.9kbits/s speed=0.014x elapsed=0:05:08.45    \nframe=  132 fps=0.4 q=27.2 size=    1280KiB time=00:00:04.33 bitrate=2419.9kbits/s speed=0.014x elapsed=0:05:08.98    \nframe=  133 fps=0.4 q=30.5 size=    1280KiB time=00:00:04.36 bitrate=2401.4kbits/s speed=0.0141x elapsed=0:05:09.50    \nframe=  133 fps=0.4 q=30.5 size=    1280KiB time=00:00:04.36 bitrate=2401.4kbits/s speed=0.0141x elapsed=0:05:10.02    \nframe=  133 fps=0.4 q=30.5 size=    1280KiB time=00:00:04.36 bitrate=2401.4kbits/s speed=0.0141x elapsed=0:05:10.55    \nframe=  133 fps=0.4 q=30.5 size=    1280KiB time=00:00:04.36 bitrate=2401.4kbits/s speed=0.014x elapsed=0:05:11.08    \nframe=  134 fps=0.4 q=32.3 size=    1280KiB time=00:00:04.40 bitrate=2383.2kbits/s speed=0.0141x elapsed=0:05:11.59    \nframe=  134 fps=0.4 q=32.3 size=    1280KiB time=00:00:04.40 bitrate=2383.2kbits/s speed=0.0141x elapsed=0:05:12.12    \nframe=  135 fps=0.4 q=32.7 size=    1280KiB time=00:00:04.43 bitrate=2365.3kbits/s speed=0.0142x elapsed=0:05:12.64    \nframe=  135 fps=0.4 q=32.7 size=    1280KiB time=00:00:04.43 bitrate=2365.3kbits/s speed=0.0142x elapsed=0:05:13.16    \nframe=  135 fps=0.4 q=32.7 size=    1280KiB time=00:00:04.43 bitrate=2365.3kbits/s speed=0.0141x elapsed=0:05:13.71    \nframe=  135 fps=0.4 q=32.7 size=    1280KiB time=00:00:04.43 bitrate=2365.3kbits/s speed=0.0141x elapsed=0:05:14.28    \nframe=  135 fps=0.4 q=32.7 size=    1280KiB time=00:00:04.43 bitrate=2365.3kbits/s speed=0.0141x elapsed=0:05:14.86    \nframe=  136 fps=0.4 q=32.8 size=    1280KiB time=00:00:04.46 bitrate=2347.6kbits/s speed=0.0142x elapsed=0:05:15.40    \nframe=  136 fps=0.4 q=32.8 size=    1280KiB time=00:00:04.46 bitrate=2347.6kbits/s speed=0.0141x elapsed=0:05:15.95    \nframe=  136 fps=0.4 q=32.8 size=    1280KiB time=00:00:04.46 bitrate=2347.6kbits/s speed=0.0141x elapsed=0:05:16.47    \nframe=  136 fps=0.4 q=32.8 size=    1280KiB time=00:00:04.46 bitrate=2347.6kbits/s speed=0.0141x elapsed=0:05:16.99    \nframe=  136 fps=0.4 q=32.8 size=    1280KiB time=00:00:04.46 bitrate=2347.6kbits/s speed=0.0141x elapsed=0:05:17.52    \nframe=  137 fps=0.4 q=27.5 size=    1280KiB time=00:00:04.50 bitrate=2330.2kbits/s speed=0.0141x elapsed=0:05:18.03    \nframe=  137 fps=0.4 q=27.5 size=    1280KiB time=00:00:04.50 bitrate=2330.2kbits/s speed=0.0141x elapsed=0:05:18.54    \nframe=  138 fps=0.4 q=31.1 size=    1280KiB time=00:00:04.53 bitrate=2313.1kbits/s speed=0.0142x elapsed=0:05:19.06    \nframe=  139 fps=0.4 q=31.9 size=    1280KiB time=00:00:04.56 bitrate=2296.2kbits/s speed=0.0143x elapsed=0:05:19.59    \nframe=  139 fps=0.4 q=31.9 size=    1280KiB time=00:00:04.56 bitrate=2296.2kbits/s speed=0.0143x elapsed=0:05:20.09    \nframe=  140 fps=0.4 q=32.4 size=    1280KiB time=00:00:04.60 bitrate=2279.6kbits/s speed=0.0143x elapsed=0:05:20.61    \nframe=  141 fps=0.4 q=32.8 size=    1280KiB time=00:00:04.63 bitrate=2263.2kbits/s speed=0.0144x elapsed=0:05:21.13    \nframe=  141 fps=0.4 q=32.8 size=    1280KiB time=00:00:04.63 bitrate=2263.2kbits/s speed=0.0144x elapsed=0:05:21.63    \nframe=  142 fps=0.4 q=27.2 size=    1280KiB time=00:00:04.66 bitrate=2247.0kbits/s speed=0.0145x elapsed=0:05:22.16    \nframe=  142 fps=0.4 q=27.2 size=    1280KiB time=00:00:04.66 bitrate=2247.0kbits/s speed=0.0145x elapsed=0:05:22.68    \nframe=  143 fps=0.4 q=30.7 size=    1280KiB time=00:00:04.70 bitrate=2231.1kbits/s speed=0.0145x elapsed=0:05:23.20    \nframe=  143 fps=0.4 q=30.7 size=    1280KiB time=00:00:04.70 bitrate=2231.1kbits/s speed=0.0145x elapsed=0:05:23.70    \nframe=  144 fps=0.4 q=32.7 size=    1280KiB time=00:00:04.73 bitrate=2215.4kbits/s speed=0.0146x elapsed=0:05:24.22    \nframe=  145 fps=0.4 q=32.8 size=    1280KiB time=00:00:04.76 bitrate=2199.9kbits/s speed=0.0147x elapsed=0:05:24.73    \nframe=  145 fps=0.4 q=32.8 size=    1280KiB time=00:00:04.76 bitrate=2199.9kbits/s speed=0.0147x elapsed=0:05:25.25    \nframe=  145 fps=0.4 q=32.8 size=    1280KiB time=00:00:04.76 bitrate=2199.9kbits/s speed=0.0146x elapsed=0:05:25.77    \nframe=  146 fps=0.4 q=27.0 size=    1280KiB time=00:00:04.80 bitrate=2184.6kbits/s speed=0.0147x elapsed=0:05:26.28    \nframe=  147 fps=0.4 q=30.5 size=    1536KiB time=00:00:04.83 bitrate=2603.4kbits/s speed=0.0148x elapsed=0:05:26.79    \nframe=  147 fps=0.4 q=30.5 size=    1536KiB time=00:00:04.83 bitrate=2603.4kbits/s speed=0.0148x elapsed=0:05:27.32    \nframe=  149 fps=0.5 q=32.0 size=    1536KiB time=00:00:04.90 bitrate=2568.0kbits/s speed=0.0149x elapsed=0:05:27.83    \n[mp4 @ 00000173646ec580] Starting second pass: moving the moov atom to the beginning of the file\n[out#0/mp4 @ 00000173646ead00] video:1585KiB audio:0KiB subtitle:0KiB other streams:0KiB global headers:2KiB muxing overhead: 0.317839%\nframe=  150 fps=0.5 q=31.9 Lsize=    1590KiB time=00:00:04.93 bitrate=2641.0kbits/s speed=0.015x elapsed=0:05:28.28    \nx265 [info]: frame I:      1, Avg QP:29.09  kb/s: 2317.20 \nx265 [info]: frame P:     32, Avg QP:25.26  kb/s: 5219.03 \nx265 [info]: frame B:    117, Avg QP:28.56  kb/s: 1881.72 \nx265 [info]: Weighted P-Frames: Y:9.4% UV:3.1%\n\nencoded 150 frames in 327.74s (0.46 fps), 2596.59 kb/s, Avg QP:27.86\n",
  "seconds": 328.5601119995117,
  "probe_out": {}
}